<?xml version="1.0" encoding="UTF-8" standalone="no"?>
<!DOCTYPE svg PUBLIC "-//W3C//DTD SVG 1.1//EN" 
  "http://www.w3.org/Graphics/SVG/1.1/DTD/svg11.dtd">
<svg width="96" height="96"
	 xmlns="http://www.w3.org/2000/svg" version="1.1">
 <path d="  M 6,40  L 7,40  L 7,39  L 6,39  Z  " style="fill:rgb(0, 0, 0); fill-opacity:0.369; stroke:none;" />
 <path d="  M 7,41  L 7,40  L 6,40  L 6,41  Z  " style="fill:rgb(0, 0, 0); fill-opacity:0.765; stroke:none;" />
 <path d="  M 23,29  L 23,30  L 24,30  L 24,29  Z  " style="fill:rgb(0, 0, 0); fill-opacity:0.765; stroke:none;" />
 <path d="  M 7,42  L 7,41  L 6,41  L 6,42  Z  " style="fill:rgb(0, 0, 0); fill-opacity:0.902; stroke:none;" />
 <path d="  M 11,40  L 10,40  L 10,41  L 11,41  Z  " style="fill:rgb(0, 0, 0); fill-opacity:0.902; stroke:none;" />
 <path d="  M 33,22  L 33,21  L 32,21  L 32,22  Z  " style="fill:rgb(0, 0, 0); fill-opacity:0.902; stroke:none;" />
 <path d="  M 86,40  L 85,40  L 85,41  L 86,41  Z  " style="fill:rgb(0, 0, 0); fill-opacity:0.902; stroke:none;" />
 <path d="  M 7,43  L 7,42  L 6,42  L 6,43  Z  " style="fill:rgb(0, 0, 0); fill-opacity:0.808; stroke:none;" />
 <path d="  M 38,60  L 37,60  L 37,61  L 38,61  Z  " style="fill:rgb(0, 0, 0); fill-opacity:0.808; stroke:none;" />
 <path d="  M 39,59  L 38,59  L 38,60  L 39,60  Z  " style="fill:rgb(0, 0, 0); fill-opacity:0.808; stroke:none;" />
 <path d="  M 6,43  L 6,44  L 7,44  L 7,43  Z  " style="fill:rgb(0, 0, 0); fill-opacity:0.471; stroke:none;" />
 <path d="  M 87,45  L 87,46  L 88,46  L 88,45  Z  " style="fill:rgb(0, 0, 0); fill-opacity:0.471; stroke:none;" />
 <path d="  M 7,44  L 6,44  L 6,45  L 7,45  Z  " style="fill:rgb(0, 0, 0); fill-opacity:0.031; stroke:none;" />
 <path d="  M 90,45  L 90,44  L 89,44  L 89,45  Z  " style="fill:rgb(0, 0, 0); fill-opacity:0.031; stroke:none;" />
 <path d="  M 8,38  L 8,37  L 7,37  L 7,38  Z  " style="fill:rgb(0, 0, 0); fill-opacity:0.004; stroke:none;" />
 <path d="  M 23,32  L 23,31  L 22,31  L 22,32  Z  " style="fill:rgb(0, 0, 0); fill-opacity:0.004; stroke:none;" />
 <path d="  M 29,18  L 29,19  L 30,19  L 30,18  Z  " style="fill:rgb(0, 0, 0); fill-opacity:0.004; stroke:none;" />
 <path d="  M 52,12  L 51,12  L 51,13  L 52,13  Z  " style="fill:rgb(0, 0, 0); fill-opacity:0.004; stroke:none;" />
 <path d="  M 8,38  L 7,38  L 7,39  L 8,39  Z  " style="fill:rgb(0, 0, 0); fill-opacity:0.612; stroke:none;" />
 <path d="  M 88,39  L 89,39  L 89,38  L 88,38  Z  " style="fill:rgb(0, 0, 0); fill-opacity:0.612; stroke:none;" />
 <path d="  M 42,58  L 42,59  L 39,59  L 39,60  L 38,60  L 38,61  L 37,61  L 37,64  L 36,64  L 36,86  L 18,86  L 18,52  L 17,52  L 17,51  L 15,51  L 15,52  L 14,52  L 14,84  L 15,84  L 15,87  L 16,87  L 16,88  L 17,88  L 17,89  L 20,89  L 20,90  L 34,90  L 34,89  L 37,89  L 37,88  L 38,88  L 38,87  L 39,87  L 39,84  L 40,84  L 40,62  L 56,62  L 56,84  L 57,84  L 57,87  L 58,87  L 58,88  L 59,88  L 59,89  L 62,89  L 62,90  L 76,90  L 76,89  L 79,89  L 79,88  L 80,88  L 80,87  L 81,87  L 81,84  L 82,84  L 82,46  L 85,46  L 85,45  L 88,45  L 88,44  L 89,44  L 89,39  L 88,39  L 88,38  L 87,38  L 87,37  L 85,37  L 85,36  L 84,36  L 84,35  L 83,35  L 83,34  L 82,34  L 82,33  L 81,33  L 81,32  L 80,32  L 80,31  L 78,31  L 78,12  L 77,12  L 77,10  L 76,10  L 76,9  L 74,9  L 74,8  L 68,8  L 68,9  L 66,9  L 66,10  L 65,10  L 65,12  L 64,12  L 64,18  L 63,18  L 63,17  L 62,17  L 62,16  L 61,16  L 61,15  L 60,15  L 60,14  L 59,14  L 59,13  L 58,13  L 58,12  L 56,12  L 56,11  L 55,11  L 55,10  L 54,10  L 54,9  L 53,9  L 53,8  L 52,8  L 52,7  L 44,7  L 44,8  L 43,8  L 43,9  L 42,9  L 42,10  L 41,10  L 41,11  L 40,11  L 40,12  L 38,12  L 38,13  L 37,13  L 37,14  L 36,14  L 36,15  L 35,15  L 35,16  L 34,16  L 34,17  L 33,17  L 33,18  L 31,18  L 31,19  L 30,19  L 30,20  L 29,20  L 29,21  L 28,21  L 28,22  L 27,22  L 27,23  L 26,23  L 26,24  L 25,24  L 25,25  L 23,25  L 23,26  L 22,26  L 22,27  L 21,27  L 21,28  L 20,28  L 20,29  L 19,29  L 19,30  L 18,30  L 18,31  L 16,31  L 16,32  L 15,32  L 15,33  L 14,33  L 14,34  L 13,34  L 13,35  L 12,35  L 12,36  L 11,36  L 11,37  L 9,37  L 9,38  L 8,38  L 8,39  L 7,39  L 7,44  L 8,44  L 8,45  L 11,45  L 11,46  L 72,46  L 72,45  L 73,45  L 73,43  L 72,43  L 72,42  L 10,42  L 10,40  L 11,40  L 11,39  L 12,39  L 12,38  L 14,38  L 14,37  L 15,37  L 15,36  L 16,36  L 16,35  L 17,35  L 17,34  L 18,34  L 18,33  L 19,33  L 19,32  L 21,32  L 21,31  L 22,31  L 22,30  L 23,30  L 23,29  L 24,29  L 24,28  L 25,28  L 25,27  L 26,27  L 26,26  L 27,26  L 27,25  L 29,25  L 29,24  L 30,24  L 30,23  L 31,23  L 31,22  L 32,22  L 32,21  L 33,21  L 33,20  L 34,20  L 34,19  L 36,19  L 36,18  L 37,18  L 37,17  L 38,17  L 38,16  L 39,16  L 39,15  L 40,15  L 40,14  L 41,14  L 41,13  L 43,13  L 43,12  L 44,12  L 44,11  L 45,11  L 45,10  L 51,10  L 51,11  L 52,11  L 52,12  L 53,12  L 53,13  L 55,13  L 55,14  L 56,14  L 56,15  L 57,15  L 57,16  L 58,16  L 58,17  L 59,17  L 59,18  L 60,18  L 60,19  L 62,19  L 62,20  L 63,20  L 63,21  L 64,21  L 64,22  L 65,22  L 65,23  L 67,23  L 67,21  L 68,21  L 68,12  L 74,12  L 74,30  L 75,30  L 75,32  L 77,32  L 77,33  L 78,33  L 78,34  L 79,34  L 79,35  L 80,35  L 80,36  L 81,36  L 81,37  L 82,37  L 82,38  L 84,38  L 84,39  L 85,39  L 85,40  L 86,40  L 86,42  L 80,42  L 80,43  L 79,43  L 79,44  L 78,44  L 78,86  L 60,86  L 60,64  L 59,64  L 59,61  L 58,61  L 58,60  L 57,60  L 57,59  L 54,59  L 54,58  Z  " style="fill:rgb(0, 0, 0); fill-opacity:1.000; stroke:none;" />
 <path d="  M 8,45  L 8,44  L 7,44  L 7,45  Z  " style="fill:rgb(0, 0, 0); fill-opacity:0.749; stroke:none;" />
 <path d="  M 7,45  L 7,46  L 8,46  L 8,45  Z  " style="fill:rgb(0, 0, 0); fill-opacity:0.035; stroke:none;" />
 <path d="  M 88,46  L 89,46  L 89,45  L 88,45  Z  " style="fill:rgb(0, 0, 0); fill-opacity:0.035; stroke:none;" />
 <path d="  M 9,37  L 8,37  L 8,38  L 9,38  Z  " style="fill:rgb(0, 0, 0); fill-opacity:0.502; stroke:none;" />
 <path d="  M 29,26  L 29,25  L 28,25  L 28,26  Z  " style="fill:rgb(0, 0, 0); fill-opacity:0.502; stroke:none;" />
 <path d="  M 31,19  L 31,18  L 30,18  L 30,19  Z  " style="fill:rgb(0, 0, 0); fill-opacity:0.502; stroke:none;" />
 <path d="  M 53,13  L 53,12  L 52,12  L 52,13  Z  " style="fill:rgb(0, 0, 0); fill-opacity:0.502; stroke:none;" />
 <path d="  M 9,45  L 8,45  L 8,46  L 9,46  Z  " style="fill:rgb(0, 0, 0); fill-opacity:0.475; stroke:none;" />
 <path d="  M 10,36  L 9,36  L 9,37  L 10,37  Z  " style="fill:rgb(0, 0, 0); fill-opacity:0.384; stroke:none;" />
 <path d="  M 75,32  L 75,33  L 76,33  L 76,32  Z  " style="fill:rgb(0, 0, 0); fill-opacity:0.384; stroke:none;" />
 <path d="  M 10,46  L 10,45  L 9,45  L 9,46  Z  " style="fill:rgb(0, 0, 0); fill-opacity:0.839; stroke:none;" />
 <path d="  M 46,11  L 46,10  L 45,10  L 45,11  Z  " style="fill:rgb(0, 0, 0); fill-opacity:0.839; stroke:none;" />
 <path d="  M 87,45  L 86,45  L 86,46  L 87,46  Z  " style="fill:rgb(0, 0, 0); fill-opacity:0.839; stroke:none;" />
 <path d="  M 10,35  L 10,36  L 11,36  L 11,35  Z  " style="fill:rgb(0, 0, 0); fill-opacity:0.267; stroke:none;" />
 <path d="  M 32,17  L 33,17  L 33,16  L 32,16  Z  " style="fill:rgb(0, 0, 0); fill-opacity:0.267; stroke:none;" />
 <path d="  M 76,34  L 77,34  L 77,33  L 76,33  Z  " style="fill:rgb(0, 0, 0); fill-opacity:0.267; stroke:none;" />
 <path d="  M 10,37  L 11,37  L 11,36  L 10,36  Z  " style="fill:rgb(0, 0, 0); fill-opacity:0.980; stroke:none;" />
 <path d="  M 54,13  L 54,14  L 55,14  L 55,13  Z  " style="fill:rgb(0, 0, 0); fill-opacity:0.980; stroke:none;" />
 <path d="  M 77,33  L 77,32  L 76,32  L 76,33  Z  " style="fill:rgb(0, 0, 0); fill-opacity:0.980; stroke:none;" />
 <path d="  M 11,42  L 11,41  L 10,41  L 10,42  Z  " style="fill:rgb(0, 0, 0); fill-opacity:0.184; stroke:none;" />
 <path d="  M 10,45  L 10,46  L 11,46  L 11,45  Z  " style="fill:rgb(0, 0, 0); fill-opacity:0.984; stroke:none;" />
 <path d="  M 19,33  L 20,33  L 20,32  L 19,32  Z  " style="fill:rgb(0, 0, 0); fill-opacity:0.984; stroke:none;" />
 <path d="  M 32,17  L 32,18  L 33,18  L 33,17  Z  " style="fill:rgb(0, 0, 0); fill-opacity:0.984; stroke:none;" />
 <path d="  M 41,13  L 41,14  L 42,14  L 42,13  Z  " style="fill:rgb(0, 0, 0); fill-opacity:0.984; stroke:none;" />
 <path d="  M 61,19  L 61,20  L 62,20  L 62,19  Z  " style="fill:rgb(0, 0, 0); fill-opacity:0.984; stroke:none;" />
 <path d="  M 63,18  L 64,18  L 64,17  L 63,17  Z  " style="fill:rgb(0, 0, 0); fill-opacity:0.984; stroke:none;" />
 <path d="  M 67,21  L 67,22  L 68,22  L 68,21  Z  " style="fill:rgb(0, 0, 0); fill-opacity:0.984; stroke:none;" />
 <path d="  M 85,46  L 86,46  L 86,45  L 85,45  Z  " style="fill:rgb(0, 0, 0); fill-opacity:0.984; stroke:none;" />
 <path d="  M 11,34  L 11,35  L 12,35  L 12,34  Z  " style="fill:rgb(0, 0, 0); fill-opacity:0.173; stroke:none;" />
 <path d="  M 34,16  L 34,15  L 33,15  L 33,16  Z  " style="fill:rgb(0, 0, 0); fill-opacity:0.173; stroke:none;" />
 <path d="  M 12,36  L 12,35  L 11,35  L 11,36  Z  " style="fill:rgb(0, 0, 0); fill-opacity:0.941; stroke:none;" />
 <path d="  M 33,17  L 34,17  L 34,16  L 33,16  Z  " style="fill:rgb(0, 0, 0); fill-opacity:0.941; stroke:none;" />
 <path d="  M 77,12  L 78,12  L 78,11  L 77,11  Z  " style="fill:rgb(0, 0, 0); fill-opacity:0.941; stroke:none;" />
 <path d="  M 77,34  L 78,34  L 78,33  L 77,33  Z  " style="fill:rgb(0, 0, 0); fill-opacity:0.941; stroke:none;" />
 <path d="  M 11,39  L 11,40  L 12,40  L 12,39  Z  " style="fill:rgb(0, 0, 0); fill-opacity:0.957; stroke:none;" />
 <path d="  M 34,20  L 33,20  L 33,21  L 34,21  Z  " style="fill:rgb(0, 0, 0); fill-opacity:0.957; stroke:none;" />
 <path d="  M 42,59  L 42,58  L 41,58  L 41,59  Z  " style="fill:rgb(0, 0, 0); fill-opacity:0.957; stroke:none;" />
 <path d="  M 55,58  L 54,58  L 54,59  L 55,59  Z  " style="fill:rgb(0, 0, 0); fill-opacity:0.957; stroke:none;" />
 <path d="  M 84,39  L 84,40  L 85,40  L 85,39  Z  " style="fill:rgb(0, 0, 0); fill-opacity:0.957; stroke:none;" />
 <path d="  M 12,41  L 12,40  L 11,40  L 11,41  Z  " style="fill:rgb(0, 0, 0); fill-opacity:0.200; stroke:none;" />
 <path d="  M 33,22  L 34,22  L 34,21  L 33,21  Z  " style="fill:rgb(0, 0, 0); fill-opacity:0.200; stroke:none;" />
 <path d="  M 12,33  L 12,34  L 13,34  L 13,33  Z  " style="fill:rgb(0, 0, 0); fill-opacity:0.098; stroke:none;" />
 <path d="  M 16,89  L 16,88  L 15,88  L 15,89  Z  " style="fill:rgb(0, 0, 0); fill-opacity:0.098; stroke:none;" />
 <path d="  M 35,15  L 35,14  L 34,14  L 34,15  Z  " style="fill:rgb(0, 0, 0); fill-opacity:0.098; stroke:none;" />
 <path d="  M 38,89  L 39,89  L 39,88  L 38,88  Z  " style="fill:rgb(0, 0, 0); fill-opacity:0.098; stroke:none;" />
 <path d="  M 57,88  L 57,89  L 58,89  L 58,88  Z  " style="fill:rgb(0, 0, 0); fill-opacity:0.098; stroke:none;" />
 <path d="  M 58,59  L 58,60  L 59,60  L 59,59  Z  " style="fill:rgb(0, 0, 0); fill-opacity:0.098; stroke:none;" />
 <path d="  M 78,36  L 79,36  L 79,35  L 78,35  Z  " style="fill:rgb(0, 0, 0); fill-opacity:0.098; stroke:none;" />
 <path d="  M 80,89  L 81,89  L 81,88  L 80,88  Z  " style="fill:rgb(0, 0, 0); fill-opacity:0.098; stroke:none;" />
 <path d="  M 13,34  L 12,34  L 12,35  L 13,35  Z  " style="fill:rgb(0, 0, 0); fill-opacity:0.882; stroke:none;" />
 <path d="  M 34,15  L 34,16  L 35,16  L 35,15  Z  " style="fill:rgb(0, 0, 0); fill-opacity:0.882; stroke:none;" />
 <path d="  M 12,39  L 13,39  L 13,38  L 12,38  Z  " style="fill:rgb(0, 0, 0); fill-opacity:0.988; stroke:none;" />
 <path d="  M 35,20  L 35,19  L 34,19  L 34,20  Z  " style="fill:rgb(0, 0, 0); fill-opacity:0.988; stroke:none;" />
 <path d="  M 84,38  L 83,38  L 83,39  L 84,39  Z  " style="fill:rgb(0, 0, 0); fill-opacity:0.988; stroke:none;" />
 <path d="  M 85,36  L 85,37  L 86,37  L 86,36  Z  " style="fill:rgb(0, 0, 0); fill-opacity:0.988; stroke:none;" />
 <path d="  M 13,40  L 13,39  L 12,39  L 12,40  Z  " style="fill:rgb(0, 0, 0); fill-opacity:0.306; stroke:none;" />
 <path d="  M 34,20  L 34,21  L 35,21  L 35,20  Z  " style="fill:rgb(0, 0, 0); fill-opacity:0.306; stroke:none;" />
 <path d="  M 83,39  L 83,40  L 84,40  L 84,39  Z  " style="fill:rgb(0, 0, 0); fill-opacity:0.306; stroke:none;" />
 <path d="  M 13,32  L 13,33  L 14,33  L 14,32  Z  " style="fill:rgb(0, 0, 0); fill-opacity:0.043; stroke:none;" />
 <path d="  M 36,14  L 36,13  L 35,13  L 35,14  Z  " style="fill:rgb(0, 0, 0); fill-opacity:0.043; stroke:none;" />
 <path d="  M 39,17  L 38,17  L 38,18  L 39,18  Z  " style="fill:rgb(0, 0, 0); fill-opacity:0.043; stroke:none;" />
 <path d="  M 58,18  L 58,17  L 57,17  L 57,18  Z  " style="fill:rgb(0, 0, 0); fill-opacity:0.043; stroke:none;" />
 <path d="  M 80,37  L 80,36  L 79,36  L 79,37  Z  " style="fill:rgb(0, 0, 0); fill-opacity:0.043; stroke:none;" />
 <path d="  M 13,34  L 14,34  L 14,33  L 13,33  Z  " style="fill:rgb(0, 0, 0); fill-opacity:0.800; stroke:none;" />
 <path d="  M 16,89  L 17,89  L 17,88  L 16,88  Z  " style="fill:rgb(0, 0, 0); fill-opacity:0.800; stroke:none;" />
 <path d="  M 35,15  L 36,15  L 36,14  L 35,14  Z  " style="fill:rgb(0, 0, 0); fill-opacity:0.800; stroke:none;" />
 <path d="  M 58,61  L 59,61  L 59,60  L 58,60  Z  " style="fill:rgb(0, 0, 0); fill-opacity:0.800; stroke:none;" />
 <path d="  M 58,89  L 59,89  L 59,88  L 58,88  Z  " style="fill:rgb(0, 0, 0); fill-opacity:0.800; stroke:none;" />
 <path d="  M 14,38  L 13,38  L 13,39  L 14,39  Z  " style="fill:rgb(0, 0, 0); fill-opacity:0.431; stroke:none;" />
 <path d="  M 35,20  L 36,20  L 36,19  L 35,19  Z  " style="fill:rgb(0, 0, 0); fill-opacity:0.431; stroke:none;" />
 <path d="  M 15,32  L 15,31  L 14,31  L 14,32  Z  " style="fill:rgb(0, 0, 0); fill-opacity:0.012; stroke:none;" />
 <path d="  M 37,13  L 37,12  L 36,12  L 36,13  Z  " style="fill:rgb(0, 0, 0); fill-opacity:0.012; stroke:none;" />
 <path d="  M 38,18  L 37,18  L 37,19  L 38,19  Z  " style="fill:rgb(0, 0, 0); fill-opacity:0.012; stroke:none;" />
 <path d="  M 59,18  L 58,18  L 58,19  L 59,19  Z  " style="fill:rgb(0, 0, 0); fill-opacity:0.012; stroke:none;" />
 <path d="  M 81,38  L 81,37  L 80,37  L 80,38  Z  " style="fill:rgb(0, 0, 0); fill-opacity:0.012; stroke:none;" />
 <path d="  M 82,31  L 81,31  L 81,32  L 82,32  Z  " style="fill:rgb(0, 0, 0); fill-opacity:0.012; stroke:none;" />
 <path d="  M 15,32  L 14,32  L 14,33  L 15,33  Z  " style="fill:rgb(0, 0, 0); fill-opacity:0.698; stroke:none;" />
 <path d="  M 37,13  L 36,13  L 36,14  L 37,14  Z  " style="fill:rgb(0, 0, 0); fill-opacity:0.698; stroke:none;" />
 <path d="  M 15,38  L 15,37  L 14,37  L 14,38  Z  " style="fill:rgb(0, 0, 0); fill-opacity:0.600; stroke:none;" />
 <path d="  M 14,50  L 14,51  L 15,51  L 15,50  Z  " style="fill:rgb(0, 0, 0); fill-opacity:0.290; stroke:none;" />
 <path d="  M 14,52  L 15,52  L 15,51  L 14,51  Z  " style="fill:rgb(0, 0, 0); fill-opacity:0.875; stroke:none;" />
 <path d="  M 73,43  L 73,42  L 72,42  L 72,43  Z  " style="fill:rgb(0, 0, 0); fill-opacity:0.875; stroke:none;" />
 <path d="  M 14,84  L 14,85  L 15,85  L 15,84  Z  " style="fill:rgb(0, 0, 0); fill-opacity:0.949; stroke:none;" />
 <path d="  M 19,34  L 19,33  L 18,33  L 18,34  Z  " style="fill:rgb(0, 0, 0); fill-opacity:0.949; stroke:none;" />
 <path d="  M 40,85  L 40,84  L 39,84  L 39,85  Z  " style="fill:rgb(0, 0, 0); fill-opacity:0.949; stroke:none;" />
 <path d="  M 40,14  L 40,15  L 41,15  L 41,14  Z  " style="fill:rgb(0, 0, 0); fill-opacity:0.949; stroke:none;" />
 <path d="  M 57,84  L 56,84  L 56,85  L 57,85  Z  " style="fill:rgb(0, 0, 0); fill-opacity:0.949; stroke:none;" />
 <path d="  M 59,63  L 59,64  L 60,64  L 60,63  Z  " style="fill:rgb(0, 0, 0); fill-opacity:0.949; stroke:none;" />
 <path d="  M 63,21  L 63,20  L 62,20  L 62,21  Z  " style="fill:rgb(0, 0, 0); fill-opacity:0.949; stroke:none;" />
 <path d="  M 64,11  L 64,12  L 65,12  L 65,11  Z  " style="fill:rgb(0, 0, 0); fill-opacity:0.949; stroke:none;" />
 <path d="  M 68,9  L 68,8  L 67,8  L 67,9  Z  " style="fill:rgb(0, 0, 0); fill-opacity:0.949; stroke:none;" />
 <path d="  M 74,8  L 74,9  L 75,9  L 75,8  Z  " style="fill:rgb(0, 0, 0); fill-opacity:0.949; stroke:none;" />
 <path d="  M 82,85  L 82,84  L 81,84  L 81,85  Z  " style="fill:rgb(0, 0, 0); fill-opacity:0.949; stroke:none;" />
 <path d="  M 14,86  L 15,86  L 15,85  L 14,85  Z  " style="fill:rgb(0, 0, 0); fill-opacity:0.784; stroke:none;" />
 <path d="  M 36,62  L 36,63  L 37,63  L 37,62  Z  " style="fill:rgb(0, 0, 0); fill-opacity:0.784; stroke:none;" />
 <path d="  M 40,58  L 40,59  L 41,59  L 41,58  Z  " style="fill:rgb(0, 0, 0); fill-opacity:0.784; stroke:none;" />
 <path d="  M 57,86  L 57,85  L 56,85  L 56,86  Z  " style="fill:rgb(0, 0, 0); fill-opacity:0.784; stroke:none;" />
 <path d="  M 14,87  L 15,87  L 15,86  L 14,86  Z  " style="fill:rgb(0, 0, 0); fill-opacity:0.420; stroke:none;" />
 <path d="  M 57,58  L 56,58  L 56,59  L 57,59  Z  " style="fill:rgb(0, 0, 0); fill-opacity:0.420; stroke:none;" />
 <path d="  M 57,86  L 56,86  L 56,87  L 57,87  Z  " style="fill:rgb(0, 0, 0); fill-opacity:0.420; stroke:none;" />
 <path d="  M 14,88  L 15,88  L 15,87  L 14,87  Z  " style="fill:rgb(0, 0, 0); fill-opacity:0.024; stroke:none;" />
 <path d="  M 37,60  L 36,60  L 36,61  L 37,61  Z  " style="fill:rgb(0, 0, 0); fill-opacity:0.024; stroke:none;" />
 <path d="  M 39,58  L 38,58  L 38,59  L 39,59  Z  " style="fill:rgb(0, 0, 0); fill-opacity:0.024; stroke:none;" />
 <path d="  M 57,88  L 57,87  L 56,87  L 56,88  Z  " style="fill:rgb(0, 0, 0); fill-opacity:0.024; stroke:none;" />
 <path d="  M 57,58  L 57,59  L 58,59  L 58,58  Z  " style="fill:rgb(0, 0, 0); fill-opacity:0.024; stroke:none;" />
 <path d="  M 16,32  L 16,31  L 15,31  L 15,32  Z  " style="fill:rgb(0, 0, 0); fill-opacity:0.580; stroke:none;" />
 <path d="  M 16,37  L 16,36  L 15,36  L 15,37  Z  " style="fill:rgb(0, 0, 0); fill-opacity:0.718; stroke:none;" />
 <path d="  M 22,27  L 22,26  L 21,26  L 21,27  Z  " style="fill:rgb(0, 0, 0); fill-opacity:0.718; stroke:none;" />
 <path d="  M 16,37  L 15,37  L 15,38  L 16,38  Z  " style="fill:rgb(0, 0, 0); fill-opacity:0.016; stroke:none;" />
 <path d="  M 22,26  L 22,25  L 21,25  L 21,26  Z  " style="fill:rgb(0, 0, 0); fill-opacity:0.016; stroke:none;" />
 <path d="  M 59,13  L 60,13  L 60,12  L 59,12  Z  " style="fill:rgb(0, 0, 0); fill-opacity:0.016; stroke:none;" />
 <path d="  M 15,50  L 15,51  L 17,51  L 17,50  Z  " style="fill:rgb(0, 0, 0); fill-opacity:0.894; stroke:none;" />
 <path d="  M 17,35  L 18,35  L 18,34  L 17,34  Z  " style="fill:rgb(0, 0, 0); fill-opacity:0.894; stroke:none;" />
 <path d="  M 40,15  L 39,15  L 39,16  L 40,16  Z  " style="fill:rgb(0, 0, 0); fill-opacity:0.894; stroke:none;" />
 <path d="  M 79,42  L 79,43  L 80,43  L 80,42  Z  " style="fill:rgb(0, 0, 0); fill-opacity:0.894; stroke:none;" />
 <path d="  M 90,42  L 90,41  L 89,41  L 89,42  Z  " style="fill:rgb(0, 0, 0); fill-opacity:0.894; stroke:none;" />
 <path d="  M 16,87  L 15,87  L 15,88  L 16,88  Z  " style="fill:rgb(0, 0, 0); fill-opacity:0.804; stroke:none;" />
 <path d="  M 58,59  L 57,59  L 57,60  L 58,60  Z  " style="fill:rgb(0, 0, 0); fill-opacity:0.804; stroke:none;" />
 <path d="  M 57,87  L 57,88  L 58,88  L 58,87  Z  " style="fill:rgb(0, 0, 0); fill-opacity:0.804; stroke:none;" />
 <path d="  M 89,43  L 90,43  L 90,42  L 89,42  Z  " style="fill:rgb(0, 0, 0); fill-opacity:0.804; stroke:none;" />
 <path d="  M 17,31  L 17,30  L 16,30  L 16,31  Z  " style="fill:rgb(0, 0, 0); fill-opacity:0.443; stroke:none;" />
 <path d="  M 39,12  L 39,11  L 38,11  L 38,12  Z  " style="fill:rgb(0, 0, 0); fill-opacity:0.443; stroke:none;" />
 <path d="  M 57,11  L 57,12  L 58,12  L 58,11  Z  " style="fill:rgb(0, 0, 0); fill-opacity:0.443; stroke:none;" />
 <path d="  M 67,23  L 65,23  L 65,24  L 67,24  Z  " style="fill:rgb(0, 0, 0); fill-opacity:0.443; stroke:none;" />
 <path d="  M 17,36  L 17,35  L 16,35  L 16,36  Z  " style="fill:rgb(0, 0, 0); fill-opacity:0.816; stroke:none;" />
 <path d="  M 38,16  L 38,17  L 39,17  L 39,16  Z  " style="fill:rgb(0, 0, 0); fill-opacity:0.816; stroke:none;" />
 <path d="  M 16,36  L 16,37  L 17,37  L 17,36  Z  " style="fill:rgb(0, 0, 0); fill-opacity:0.051; stroke:none;" />
 <path d="  M 20,27  L 21,27  L 21,26  L 20,26  Z  " style="fill:rgb(0, 0, 0); fill-opacity:0.051; stroke:none;" />
 <path d="  M 42,7  L 42,8  L 43,8  L 43,7  Z  " style="fill:rgb(0, 0, 0); fill-opacity:0.051; stroke:none;" />
 <path d="  M 54,8  L 54,7  L 53,7  L 53,8  Z  " style="fill:rgb(0, 0, 0); fill-opacity:0.051; stroke:none;" />
 <path d="  M 17,90  L 17,89  L 16,89  L 16,90  Z  " style="fill:rgb(0, 0, 0); fill-opacity:0.020; stroke:none;" />
 <path d="  M 31,24  L 30,24  L 30,25  L 31,25  Z  " style="fill:rgb(0, 0, 0); fill-opacity:0.020; stroke:none;" />
 <path d="  M 37,89  L 37,90  L 38,90  L 38,89  Z  " style="fill:rgb(0, 0, 0); fill-opacity:0.020; stroke:none;" />
 <path d="  M 39,88  L 40,88  L 40,87  L 39,87  Z  " style="fill:rgb(0, 0, 0); fill-opacity:0.020; stroke:none;" />
 <path d="  M 58,89  L 58,90  L 59,90  L 59,89  Z  " style="fill:rgb(0, 0, 0); fill-opacity:0.020; stroke:none;" />
 <path d="  M 60,60  L 59,60  L 59,61  L 60,61  Z  " style="fill:rgb(0, 0, 0); fill-opacity:0.020; stroke:none;" />
 <path d="  M 79,89  L 79,90  L 80,90  L 80,89  Z  " style="fill:rgb(0, 0, 0); fill-opacity:0.020; stroke:none;" />
 <path d="  M 81,87  L 81,88  L 82,88  L 82,87  Z  " style="fill:rgb(0, 0, 0); fill-opacity:0.020; stroke:none;" />
 <path d="  M 18,29  L 17,29  L 17,30  L 18,30  Z  " style="fill:rgb(0, 0, 0); fill-opacity:0.314; stroke:none;" />
 <path d="  M 40,10  L 39,10  L 39,11  L 40,11  Z  " style="fill:rgb(0, 0, 0); fill-opacity:0.314; stroke:none;" />
 <path d="  M 49,10  L 49,11  L 50,11  L 50,10  Z  " style="fill:rgb(0, 0, 0); fill-opacity:0.314; stroke:none;" />
 <path d="  M 56,10  L 56,11  L 57,11  L 57,10  Z  " style="fill:rgb(0, 0, 0); fill-opacity:0.314; stroke:none;" />
 <path d="  M 78,29  L 78,30  L 79,30  L 79,29  Z  " style="fill:rgb(0, 0, 0); fill-opacity:0.314; stroke:none;" />
 <path d="  M 17,31  L 18,31  L 18,30  L 17,30  Z  " style="fill:rgb(0, 0, 0); fill-opacity:0.992; stroke:none;" />
 <path d="  M 24,25  L 25,25  L 25,24  L 24,24  Z  " style="fill:rgb(0, 0, 0); fill-opacity:0.992; stroke:none;" />
 <path d="  M 40,12  L 40,11  L 39,11  L 39,12  Z  " style="fill:rgb(0, 0, 0); fill-opacity:0.992; stroke:none;" />
 <path d="  M 57,12  L 57,11  L 56,11  L 56,12  Z  " style="fill:rgb(0, 0, 0); fill-opacity:0.992; stroke:none;" />
 <path d="  M 79,30  L 78,30  L 78,31  L 79,31  Z  " style="fill:rgb(0, 0, 0); fill-opacity:0.992; stroke:none;" />
 <path d="  M 18,35  L 17,35  L 17,36  L 18,36  Z  " style="fill:rgb(0, 0, 0); fill-opacity:0.110; stroke:none;" />
 <path d="  M 34,85  L 34,86  L 35,86  L 35,85  Z  " style="fill:rgb(0, 0, 0); fill-opacity:0.110; stroke:none;" />
 <path d="  M 36,85  L 36,84  L 35,84  L 35,85  Z  " style="fill:rgb(0, 0, 0); fill-opacity:0.110; stroke:none;" />
 <path d="  M 40,17  L 40,16  L 39,16  L 39,17  Z  " style="fill:rgb(0, 0, 0); fill-opacity:0.110; stroke:none;" />
 <path d="  M 40,63  L 40,64  L 41,64  L 41,63  Z  " style="fill:rgb(0, 0, 0); fill-opacity:0.110; stroke:none;" />
 <path d="  M 55,62  L 54,62  L 54,63  L 55,63  Z  " style="fill:rgb(0, 0, 0); fill-opacity:0.110; stroke:none;" />
 <path d="  M 76,85  L 76,86  L 77,86  L 77,85  Z  " style="fill:rgb(0, 0, 0); fill-opacity:0.110; stroke:none;" />
 <path d="  M 78,85  L 78,84  L 77,84  L 77,85  Z  " style="fill:rgb(0, 0, 0); fill-opacity:0.110; stroke:none;" />
 <path d="  M 17,50  L 17,51  L 18,51  L 18,50  Z  " style="fill:rgb(0, 0, 0); fill-opacity:0.286; stroke:none;" />
 <path d="  M 19,34  L 20,34  L 20,33  L 19,33  Z  " style="fill:rgb(0, 0, 0); fill-opacity:0.286; stroke:none;" />
 <path d="  M 41,15  L 42,15  L 42,14  L 41,14  Z  " style="fill:rgb(0, 0, 0); fill-opacity:0.286; stroke:none;" />
 <path d="  M 73,42  L 73,43  L 74,43  L 74,42  Z  " style="fill:rgb(0, 0, 0); fill-opacity:0.286; stroke:none;" />
 <path d="  M 18,52  L 18,51  L 17,51  L 17,52  Z  " style="fill:rgb(0, 0, 0); fill-opacity:0.871; stroke:none;" />
 <path d="  M 73,45  L 72,45  L 72,46  L 73,46  Z  " style="fill:rgb(0, 0, 0); fill-opacity:0.871; stroke:none;" />
 <path d="  M 18,89  L 17,89  L 17,90  L 18,90  Z  " style="fill:rgb(0, 0, 0); fill-opacity:0.412; stroke:none;" />
 <path d="  M 59,61  L 59,62  L 60,62  L 60,61  Z  " style="fill:rgb(0, 0, 0); fill-opacity:0.412; stroke:none;" />
 <path d="  M 59,90  L 60,90  L 60,89  L 59,89  Z  " style="fill:rgb(0, 0, 0); fill-opacity:0.412; stroke:none;" />
 <path d="  M 19,29  L 19,28  L 18,28  L 18,29  Z  " style="fill:rgb(0, 0, 0); fill-opacity:0.208; stroke:none;" />
 <path d="  M 40,9  L 40,10  L 41,10  L 41,9  Z  " style="fill:rgb(0, 0, 0); fill-opacity:0.208; stroke:none;" />
 <path d="  M 56,9  L 55,9  L 55,10  L 56,10  Z  " style="fill:rgb(0, 0, 0); fill-opacity:0.208; stroke:none;" />
 <path d="  M 18,29  L 18,30  L 19,30  L 19,29  Z  " style="fill:rgb(0, 0, 0); fill-opacity:0.961; stroke:none;" />
 <path d="  M 41,10  L 40,10  L 40,11  L 41,11  Z  " style="fill:rgb(0, 0, 0); fill-opacity:0.961; stroke:none;" />
 <path d="  M 48,7  L 49,7  L 49,6  L 48,6  Z  " style="fill:rgb(0, 0, 0); fill-opacity:0.961; stroke:none;" />
 <path d="  M 56,10  L 55,10  L 55,11  L 56,11  Z  " style="fill:rgb(0, 0, 0); fill-opacity:0.961; stroke:none;" />
 <path d="  M 18,34  L 18,35  L 19,35  L 19,34  Z  " style="fill:rgb(0, 0, 0); fill-opacity:0.188; stroke:none;" />
 <path d="  M 41,16  L 41,15  L 40,15  L 40,16  Z  " style="fill:rgb(0, 0, 0); fill-opacity:0.188; stroke:none;" />
 <path d="  M 85,42  L 86,42  L 86,41  L 85,41  Z  " style="fill:rgb(0, 0, 0); fill-opacity:0.188; stroke:none;" />
 <path d="  M 19,85  L 19,84  L 18,84  L 18,85  Z  " style="fill:rgb(0, 0, 0); fill-opacity:0.106; stroke:none;" />
 <path d="  M 20,85  L 19,85  L 19,86  L 20,86  Z  " style="fill:rgb(0, 0, 0); fill-opacity:0.106; stroke:none;" />
 <path d="  M 42,62  L 41,62  L 41,63  L 42,63  Z  " style="fill:rgb(0, 0, 0); fill-opacity:0.106; stroke:none;" />
 <path d="  M 61,84  L 60,84  L 60,85  L 61,85  Z  " style="fill:rgb(0, 0, 0); fill-opacity:0.106; stroke:none;" />
 <path d="  M 62,85  L 61,85  L 61,86  L 62,86  Z  " style="fill:rgb(0, 0, 0); fill-opacity:0.106; stroke:none;" />
 <path d="  M 77,8  L 76,8  L 76,9  L 77,9  Z  " style="fill:rgb(0, 0, 0); fill-opacity:0.106; stroke:none;" />
 <path d="  M 77,10  L 78,10  L 78,9  L 77,9  Z  " style="fill:rgb(0, 0, 0); fill-opacity:0.106; stroke:none;" />
 <path d="  M 19,86  L 19,85  L 18,85  L 18,86  Z  " style="fill:rgb(0, 0, 0); fill-opacity:0.702; stroke:none;" />
 <path d="  M 60,86  L 61,86  L 61,85  L 60,85  Z  " style="fill:rgb(0, 0, 0); fill-opacity:0.702; stroke:none;" />
 <path d="  M 68,23  L 68,22  L 67,22  L 67,23  Z  " style="fill:rgb(0, 0, 0); fill-opacity:0.702; stroke:none;" />
 <path d="  M 19,90  L 19,89  L 18,89  L 18,90  Z  " style="fill:rgb(0, 0, 0); fill-opacity:0.773; stroke:none;" />
 <path d="  M 36,90  L 36,89  L 35,89  L 35,90  Z  " style="fill:rgb(0, 0, 0); fill-opacity:0.773; stroke:none;" />
 <path d="  M 60,89  L 60,90  L 61,90  L 61,89  Z  " style="fill:rgb(0, 0, 0); fill-opacity:0.773; stroke:none;" />
 <path d="  M 78,89  L 77,89  L 77,90  L 78,90  Z  " style="fill:rgb(0, 0, 0); fill-opacity:0.773; stroke:none;" />
 <path d="  M 19,28  L 20,28  L 20,27  L 19,27  Z  " style="fill:rgb(0, 0, 0); fill-opacity:0.125; stroke:none;" />
 <path d="  M 42,8  L 41,8  L 41,9  L 42,9  Z  " style="fill:rgb(0, 0, 0); fill-opacity:0.125; stroke:none;" />
 <path d="  M 54,8  L 54,9  L 55,9  L 55,8  Z  " style="fill:rgb(0, 0, 0); fill-opacity:0.125; stroke:none;" />
 <path d="  M 19,29  L 20,29  L 20,28  L 19,28  Z  " style="fill:rgb(0, 0, 0); fill-opacity:0.910; stroke:none;" />
 <path d="  M 41,10  L 42,10  L 42,9  L 41,9  Z  " style="fill:rgb(0, 0, 0); fill-opacity:0.910; stroke:none;" />
 <path d="  M 55,9  L 54,9  L 54,10  L 55,10  Z  " style="fill:rgb(0, 0, 0); fill-opacity:0.910; stroke:none;" />
 <path d="  M 19,89  L 19,90  L 20,90  L 20,89  Z  " style="fill:rgb(0, 0, 0); fill-opacity:0.953; stroke:none;" />
 <path d="  M 34,89  L 34,90  L 35,90  L 35,89  Z  " style="fill:rgb(0, 0, 0); fill-opacity:0.953; stroke:none;" />
 <path d="  M 36,64  L 37,64  L 37,63  L 36,63  Z  " style="fill:rgb(0, 0, 0); fill-opacity:0.953; stroke:none;" />
 <path d="  M 62,89  L 61,89  L 61,90  L 62,90  Z  " style="fill:rgb(0, 0, 0); fill-opacity:0.953; stroke:none;" />
 <path d="  M 62,16  L 62,17  L 63,17  L 63,16  Z  " style="fill:rgb(0, 0, 0); fill-opacity:0.953; stroke:none;" />
 <path d="  M 76,89  L 76,90  L 77,90  L 77,89  Z  " style="fill:rgb(0, 0, 0); fill-opacity:0.953; stroke:none;" />
 <path d="  M 85,35  L 84,35  L 84,36  L 85,36  Z  " style="fill:rgb(0, 0, 0); fill-opacity:0.953; stroke:none;" />
 <path d="  M 21,27  L 20,27  L 20,28  L 21,28  Z  " style="fill:rgb(0, 0, 0); fill-opacity:0.835; stroke:none;" />
 <path d="  M 43,8  L 42,8  L 42,9  L 43,9  Z  " style="fill:rgb(0, 0, 0); fill-opacity:0.835; stroke:none;" />
 <path d="  M 54,8  L 53,8  L 53,9  L 54,9  Z  " style="fill:rgb(0, 0, 0); fill-opacity:0.835; stroke:none;" />
 <path d="  M 20,33  L 21,33  L 21,32  L 20,32  Z  " style="fill:rgb(0, 0, 0); fill-opacity:0.408; stroke:none;" />
 <path d="  M 37,89  L 36,89  L 36,90  L 37,90  Z  " style="fill:rgb(0, 0, 0); fill-opacity:0.408; stroke:none;" />
 <path d="  M 40,86  L 39,86  L 39,87  L 40,87  Z  " style="fill:rgb(0, 0, 0); fill-opacity:0.408; stroke:none;" />
 <path d="  M 43,14  L 43,13  L 42,13  L 42,14  Z  " style="fill:rgb(0, 0, 0); fill-opacity:0.408; stroke:none;" />
 <path d="  M 79,90  L 79,89  L 78,89  L 78,90  Z  " style="fill:rgb(0, 0, 0); fill-opacity:0.408; stroke:none;" />
 <path d="  M 81,87  L 82,87  L 82,86  L 81,86  Z  " style="fill:rgb(0, 0, 0); fill-opacity:0.408; stroke:none;" />
 <path d="  M 21,31  L 21,32  L 22,32  L 22,31  Z  " style="fill:rgb(0, 0, 0); fill-opacity:0.522; stroke:none;" />
 <path d="  M 23,25  L 22,25  L 22,26  L 23,26  Z  " style="fill:rgb(0, 0, 0); fill-opacity:0.596; stroke:none;" />
 <path d="  M 45,7  L 46,7  L 46,6  L 45,6  Z  " style="fill:rgb(0, 0, 0); fill-opacity:0.596; stroke:none;" />
 <path d="  M 23,30  L 22,30  L 22,31  L 23,31  Z  " style="fill:rgb(0, 0, 0); fill-opacity:0.655; stroke:none;" />
 <path d="  M 23,24  L 23,25  L 24,25  L 24,24  Z  " style="fill:rgb(0, 0, 0); fill-opacity:0.435; stroke:none;" />
 <path d="  M 74,32  L 75,32  L 75,31  L 74,31  Z  " style="fill:rgb(0, 0, 0); fill-opacity:0.435; stroke:none;" />
 <path d="  M 83,38  L 82,38  L 82,39  L 83,39  Z  " style="fill:rgb(0, 0, 0); fill-opacity:0.435; stroke:none;" />
 <path d="  M 23,31  L 24,31  L 24,30  L 23,30  Z  " style="fill:rgb(0, 0, 0); fill-opacity:0.027; stroke:none;" />
 <path d="  M 29,19  L 28,19  L 28,20  L 29,20  Z  " style="fill:rgb(0, 0, 0); fill-opacity:0.027; stroke:none;" />
 <path d="  M 45,11  L 45,12  L 46,12  L 46,11  Z  " style="fill:rgb(0, 0, 0); fill-opacity:0.027; stroke:none;" />
 <path d="  M 51,11  L 50,11  L 50,12  L 51,12  Z  " style="fill:rgb(0, 0, 0); fill-opacity:0.027; stroke:none;" />
 <path d="  M 25,23  L 24,23  L 24,24  L 25,24  Z  " style="fill:rgb(0, 0, 0); fill-opacity:0.357; stroke:none;" />
 <path d="  M 27,27  L 28,27  L 28,26  L 27,26  Z  " style="fill:rgb(0, 0, 0); fill-opacity:0.357; stroke:none;" />
 <path d="  M 25,28  L 24,28  L 24,29  L 25,29  Z  " style="fill:rgb(0, 0, 0); fill-opacity:0.863; stroke:none;" />
 <path d="  M 27,22  L 28,22  L 28,21  L 27,21  Z  " style="fill:rgb(0, 0, 0); fill-opacity:0.863; stroke:none;" />
 <path d="  M 24,30  L 25,30  L 25,29  L 24,29  Z  " style="fill:rgb(0, 0, 0); fill-opacity:0.075; stroke:none;" />
 <path d="  M 28,20  L 27,20  L 27,21  L 28,21  Z  " style="fill:rgb(0, 0, 0); fill-opacity:0.075; stroke:none;" />
 <path d="  M 26,22  L 25,22  L 25,23  L 26,23  Z  " style="fill:rgb(0, 0, 0); fill-opacity:0.243; stroke:none;" />
 <path d="  M 26,28  L 27,28  L 27,27  L 26,27  Z  " style="fill:rgb(0, 0, 0); fill-opacity:0.243; stroke:none;" />
 <path d="  M 26,23  L 25,23  L 25,24  L 26,24  Z  " style="fill:rgb(0, 0, 0); fill-opacity:0.973; stroke:none;" />
 <path d="  M 27,27  L 27,26  L 26,26  L 26,27  Z  " style="fill:rgb(0, 0, 0); fill-opacity:0.973; stroke:none;" />
 <path d="  M 25,27  L 25,28  L 26,28  L 26,27  Z  " style="fill:rgb(0, 0, 0); fill-opacity:0.929; stroke:none;" />
 <path d="  M 27,23  L 27,22  L 26,22  L 26,23  Z  " style="fill:rgb(0, 0, 0); fill-opacity:0.929; stroke:none;" />
 <path d="  M 26,29  L 26,28  L 25,28  L 25,29  Z  " style="fill:rgb(0, 0, 0); fill-opacity:0.153; stroke:none;" />
 <path d="  M 27,22  L 27,21  L 26,21  L 26,22  Z  " style="fill:rgb(0, 0, 0); fill-opacity:0.153; stroke:none;" />
 <path d="  M 27,26  L 28,26  L 28,25  L 27,25  Z  " style="fill:rgb(0, 0, 0); fill-opacity:0.996; stroke:none;" />
 <path d="  M 29,21  L 29,20  L 28,20  L 28,21  Z  " style="fill:rgb(0, 0, 0); fill-opacity:0.761; stroke:none;" />
 <path d="  M 89,41  L 90,41  L 90,40  L 89,40  Z  " style="fill:rgb(0, 0, 0); fill-opacity:0.761; stroke:none;" />
 <path d="  M 29,19  L 29,20  L 30,20  L 30,19  Z  " style="fill:rgb(0, 0, 0); fill-opacity:0.647; stroke:none;" />
 <path d="  M 29,25  L 30,25  L 30,24  L 29,24  Z  " style="fill:rgb(0, 0, 0); fill-opacity:0.620; stroke:none;" />
 <path d="  M 31,24  L 31,23  L 30,23  L 30,24  Z  " style="fill:rgb(0, 0, 0); fill-opacity:0.729; stroke:none;" />
 <path d="  M 31,18  L 32,18  L 32,17  L 31,17  Z  " style="fill:rgb(0, 0, 0); fill-opacity:0.396; stroke:none;" />
 <path d="  M 31,23  L 32,23  L 32,22  L 31,22  Z  " style="fill:rgb(0, 0, 0); fill-opacity:0.827; stroke:none;" />
 <path d="  M 31,23  L 31,24  L 32,24  L 32,23  Z  " style="fill:rgb(0, 0, 0); fill-opacity:0.059; stroke:none;" />
 <path d="  M 33,22  L 32,22  L 32,23  L 33,23  Z  " style="fill:rgb(0, 0, 0); fill-opacity:0.118; stroke:none;" />
 <path d="  M 35,86  L 36,86  L 36,85  L 35,85  Z  " style="fill:rgb(0, 0, 0); fill-opacity:0.706; stroke:none;" />
 <path d="  M 41,62  L 40,62  L 40,63  L 41,63  Z  " style="fill:rgb(0, 0, 0); fill-opacity:0.706; stroke:none;" />
 <path d="  M 77,86  L 78,86  L 78,85  L 77,85  Z  " style="fill:rgb(0, 0, 0); fill-opacity:0.706; stroke:none;" />
 <path d="  M 37,18  L 36,18  L 36,19  L 37,19  Z  " style="fill:rgb(0, 0, 0); fill-opacity:0.569; stroke:none;" />
 <path d="  M 44,13  L 44,12  L 43,12  L 43,13  Z  " style="fill:rgb(0, 0, 0); fill-opacity:0.569; stroke:none;" />
 <path d="  M 82,37  L 81,37  L 81,38  L 82,38  Z  " style="fill:rgb(0, 0, 0); fill-opacity:0.569; stroke:none;" />
 <path d="  M 87,37  L 87,38  L 88,38  L 88,37  Z  " style="fill:rgb(0, 0, 0); fill-opacity:0.569; stroke:none;" />
 <path d="  M 36,62  L 37,62  L 37,61  L 36,61  Z  " style="fill:rgb(0, 0, 0); fill-opacity:0.424; stroke:none;" />
 <path d="  M 40,59  L 40,58  L 39,58  L 39,59  Z  " style="fill:rgb(0, 0, 0); fill-opacity:0.424; stroke:none;" />
 <path d="  M 37,12  L 37,13  L 38,13  L 38,12  Z  " style="fill:rgb(0, 0, 0); fill-opacity:0.573; stroke:none;" />
 <path d="  M 37,17  L 37,18  L 38,18  L 38,17  Z  " style="fill:rgb(0, 0, 0); fill-opacity:0.690; stroke:none;" />
 <path d="  M 80,37  L 81,37  L 81,36  L 80,36  Z  " style="fill:rgb(0, 0, 0); fill-opacity:0.690; stroke:none;" />
 <path d="  M 37,60  L 38,60  L 38,59  L 37,59  Z  " style="fill:rgb(0, 0, 0); fill-opacity:0.102; stroke:none;" />
 <path d="  M 37,88  L 37,89  L 38,89  L 38,88  Z  " style="fill:rgb(0, 0, 0); fill-opacity:0.796; stroke:none;" />
 <path d="  M 57,16  L 57,17  L 58,17  L 58,16  Z  " style="fill:rgb(0, 0, 0); fill-opacity:0.796; stroke:none;" />
 <path d="  M 79,36  L 80,36  L 80,35  L 79,35  Z  " style="fill:rgb(0, 0, 0); fill-opacity:0.796; stroke:none;" />
 <path d="  M 79,89  L 80,89  L 80,88  L 79,88  Z  " style="fill:rgb(0, 0, 0); fill-opacity:0.796; stroke:none;" />
 <path d="  M 39,87  L 38,87  L 38,88  L 39,88  Z  " style="fill:rgb(0, 0, 0); fill-opacity:0.792; stroke:none;" />
 <path d="  M 81,87  L 80,87  L 80,88  L 81,88  Z  " style="fill:rgb(0, 0, 0); fill-opacity:0.792; stroke:none;" />
 <path d="  M 40,86  L 40,85  L 39,85  L 39,86  Z  " style="fill:rgb(0, 0, 0); fill-opacity:0.776; stroke:none;" />
 <path d="  M 60,62  L 59,62  L 59,63  L 60,63  Z  " style="fill:rgb(0, 0, 0); fill-opacity:0.776; stroke:none;" />
 <path d="  M 82,85  L 81,85  L 81,86  L 82,86  Z  " style="fill:rgb(0, 0, 0); fill-opacity:0.776; stroke:none;" />
 <path d="  M 43,8  L 44,8  L 44,7  L 43,7  Z  " style="fill:rgb(0, 0, 0); fill-opacity:0.635; stroke:none;" />
 <path d="  M 45,7  L 45,6  L 44,6  L 44,7  Z  " style="fill:rgb(0, 0, 0); fill-opacity:0.196; stroke:none;" />
 <path d="  M 45,12  L 45,11  L 44,11  L 44,12  Z  " style="fill:rgb(0, 0, 0); fill-opacity:0.651; stroke:none;" />
 <path d="  M 52,12  L 52,11  L 51,11  L 51,12  Z  " style="fill:rgb(0, 0, 0); fill-opacity:0.651; stroke:none;" />
 <path d="  M 44,13  L 45,13  L 45,12  L 44,12  Z  " style="fill:rgb(0, 0, 0); fill-opacity:0.008; stroke:none;" />
 <path d="  M 89,37  L 88,37  L 88,38  L 89,38  Z  " style="fill:rgb(0, 0, 0); fill-opacity:0.008; stroke:none;" />
 <path d="  M 47,6  L 46,6  L 46,7  L 47,7  Z  " style="fill:rgb(0, 0, 0); fill-opacity:0.847; stroke:none;" />
 <path d="  M 50,7  L 50,6  L 49,6  L 49,7  Z  " style="fill:rgb(0, 0, 0); fill-opacity:0.847; stroke:none;" />
 <path d="  M 46,10  L 46,11  L 47,11  L 47,10  Z  " style="fill:rgb(0, 0, 0); fill-opacity:0.310; stroke:none;" />
 <path d="  M 47,7  L 48,7  L 48,6  L 47,6  Z  " style="fill:rgb(0, 0, 0); fill-opacity:0.965; stroke:none;" />
 <path d="  M 48,11  L 48,10  L 47,10  L 47,11  Z  " style="fill:rgb(0, 0, 0); fill-opacity:0.067; stroke:none;" />
 <path d="  M 48,11  L 49,11  L 49,10  L 48,10  Z  " style="fill:rgb(0, 0, 0); fill-opacity:0.071; stroke:none;" />
 <path d="  M 50,6  L 50,7  L 51,7  L 51,6  Z  " style="fill:rgb(0, 0, 0); fill-opacity:0.592; stroke:none;" />
 <path d="  M 51,11  L 51,10  L 50,10  L 50,11  Z  " style="fill:rgb(0, 0, 0); fill-opacity:0.843; stroke:none;" />
 <path d="  M 52,7  L 52,6  L 51,6  L 51,7  Z  " style="fill:rgb(0, 0, 0); fill-opacity:0.192; stroke:none;" />
 <path d="  M 62,16  L 63,16  L 63,15  L 62,15  Z  " style="fill:rgb(0, 0, 0); fill-opacity:0.192; stroke:none;" />
 <path d="  M 85,35  L 85,34  L 84,34  L 84,35  Z  " style="fill:rgb(0, 0, 0); fill-opacity:0.192; stroke:none;" />
 <path d="  M 53,8  L 53,7  L 52,7  L 52,8  Z  " style="fill:rgb(0, 0, 0); fill-opacity:0.631; stroke:none;" />
 <path d="  M 54,14  L 54,13  L 53,13  L 53,14  Z  " style="fill:rgb(0, 0, 0); fill-opacity:0.376; stroke:none;" />
 <path d="  M 55,15  L 55,14  L 54,14  L 54,15  Z  " style="fill:rgb(0, 0, 0); fill-opacity:0.263; stroke:none;" />
 <path d="  M 55,15  L 56,15  L 56,14  L 55,14  Z  " style="fill:rgb(0, 0, 0); fill-opacity:0.937; stroke:none;" />
 <path d="  M 55,15  L 55,16  L 56,16  L 56,15  Z  " style="fill:rgb(0, 0, 0); fill-opacity:0.169; stroke:none;" />
 <path d="  M 77,34  L 77,35  L 78,35  L 78,34  Z  " style="fill:rgb(0, 0, 0); fill-opacity:0.169; stroke:none;" />
 <path d="  M 55,59  L 56,59  L 56,58  L 55,58  Z  " style="fill:rgb(0, 0, 0); fill-opacity:0.780; stroke:none;" />
 <path d="  M 56,62  L 55,62  L 55,63  L 56,63  Z  " style="fill:rgb(0, 0, 0); fill-opacity:0.710; stroke:none;" />
 <path d="  M 56,63  L 55,63  L 55,64  L 56,64  Z  " style="fill:rgb(0, 0, 0); fill-opacity:0.114; stroke:none;" />
 <path d="  M 62,14  L 61,14  L 61,15  L 62,15  Z  " style="fill:rgb(0, 0, 0); fill-opacity:0.114; stroke:none;" />
 <path d="  M 84,34  L 84,33  L 83,33  L 83,34  Z  " style="fill:rgb(0, 0, 0); fill-opacity:0.114; stroke:none;" />
 <path d="  M 57,15  L 56,15  L 56,16  L 57,16  Z  " style="fill:rgb(0, 0, 0); fill-opacity:0.878; stroke:none;" />
 <path d="  M 78,35  L 79,35  L 79,34  L 78,34  Z  " style="fill:rgb(0, 0, 0); fill-opacity:0.878; stroke:none;" />
 <path d="  M 57,16  L 56,16  L 56,17  L 57,17  Z  " style="fill:rgb(0, 0, 0); fill-opacity:0.094; stroke:none;" />
 <path d="  M 59,13  L 59,12  L 58,12  L 58,13  Z  " style="fill:rgb(0, 0, 0); fill-opacity:0.604; stroke:none;" />
 <path d="  M 59,17  L 58,17  L 58,18  L 59,18  Z  " style="fill:rgb(0, 0, 0); fill-opacity:0.694; stroke:none;" />
 <path d="  M 59,14  L 60,14  L 60,13  L 59,13  Z  " style="fill:rgb(0, 0, 0); fill-opacity:0.722; stroke:none;" />
 <path d="  M 81,33  L 82,33  L 82,32  L 81,32  Z  " style="fill:rgb(0, 0, 0); fill-opacity:0.722; stroke:none;" />
 <path d="  M 59,19  L 60,19  L 60,18  L 59,18  Z  " style="fill:rgb(0, 0, 0); fill-opacity:0.533; stroke:none;" />
 <path d="  M 61,14  L 61,13  L 60,13  L 60,14  Z  " style="fill:rgb(0, 0, 0); fill-opacity:0.055; stroke:none;" />
 <path d="  M 82,33  L 83,33  L 83,32  L 82,32  Z  " style="fill:rgb(0, 0, 0); fill-opacity:0.055; stroke:none;" />
 <path d="  M 60,15  L 61,15  L 61,14  L 60,14  Z  " style="fill:rgb(0, 0, 0); fill-opacity:0.820; stroke:none;" />
 <path d="  M 82,33  L 82,34  L 83,34  L 83,33  Z  " style="fill:rgb(0, 0, 0); fill-opacity:0.820; stroke:none;" />
 <path d="  M 60,20  L 61,20  L 61,19  L 60,19  Z  " style="fill:rgb(0, 0, 0); fill-opacity:0.400; stroke:none;" />
 <path d="  M 61,15  L 61,16  L 62,16  L 62,15  Z  " style="fill:rgb(0, 0, 0); fill-opacity:0.898; stroke:none;" />
 <path d="  M 83,34  L 83,35  L 84,35  L 84,34  Z  " style="fill:rgb(0, 0, 0); fill-opacity:0.898; stroke:none;" />
 <path d="  M 61,20  L 61,21  L 62,21  L 62,20  Z  " style="fill:rgb(0, 0, 0); fill-opacity:0.282; stroke:none;" />
 <path d="  M 74,45  L 73,45  L 73,46  L 74,46  Z  " style="fill:rgb(0, 0, 0); fill-opacity:0.282; stroke:none;" />
 <path d="  M 62,21  L 62,22  L 63,22  L 63,21  Z  " style="fill:rgb(0, 0, 0); fill-opacity:0.204; stroke:none;" />
 <path d="  M 84,40  L 84,41  L 85,41  L 85,40  Z  " style="fill:rgb(0, 0, 0); fill-opacity:0.204; stroke:none;" />
 <path d="  M 64,17  L 64,16  L 63,16  L 63,17  Z  " style="fill:rgb(0, 0, 0); fill-opacity:0.294; stroke:none;" />
 <path d="  M 78,42  L 78,43  L 79,43  L 79,42  Z  " style="fill:rgb(0, 0, 0); fill-opacity:0.294; stroke:none;" />
 <path d="  M 86,36  L 86,35  L 85,35  L 85,36  Z  " style="fill:rgb(0, 0, 0); fill-opacity:0.294; stroke:none;" />
 <path d="  M 63,22  L 64,22  L 64,21  L 63,21  Z  " style="fill:rgb(0, 0, 0); fill-opacity:0.906; stroke:none;" />
 <path d="  M 64,23  L 64,22  L 63,22  L 63,23  Z  " style="fill:rgb(0, 0, 0); fill-opacity:0.122; stroke:none;" />
 <path d="  M 64,10  L 65,10  L 65,9  L 64,9  Z  " style="fill:rgb(0, 0, 0); fill-opacity:0.149; stroke:none;" />
 <path d="  M 65,8  L 65,9  L 66,9  L 66,8  Z  " style="fill:rgb(0, 0, 0); fill-opacity:0.149; stroke:none;" />
 <path d="  M 65,10  L 64,10  L 64,11  L 65,11  Z  " style="fill:rgb(0, 0, 0); fill-opacity:0.682; stroke:none;" />
 <path d="  M 67,8  L 66,8  L 66,9  L 67,9  Z  " style="fill:rgb(0, 0, 0); fill-opacity:0.682; stroke:none;" />
 <path d="  M 64,23  L 65,23  L 65,22  L 64,22  Z  " style="fill:rgb(0, 0, 0); fill-opacity:0.831; stroke:none;" />
 <path d="  M 64,24  L 65,24  L 65,23  L 64,23  Z  " style="fill:rgb(0, 0, 0); fill-opacity:0.047; stroke:none;" />
 <path d="  M 67,23  L 67,24  L 68,24  L 68,23  Z  " style="fill:rgb(0, 0, 0); fill-opacity:0.047; stroke:none;" />
 <path d="  M 65,10  L 66,10  L 66,9  L 65,9  Z  " style="fill:rgb(0, 0, 0); fill-opacity:0.933; stroke:none;" />
 <path d="  M 74,45  L 74,43  L 73,43  L 73,45  Z  " style="fill:rgb(0, 0, 0); fill-opacity:0.890; stroke:none;" />
 <path d="  M 79,43  L 78,43  L 78,44  L 79,44  Z  " style="fill:rgb(0, 0, 0); fill-opacity:0.890; stroke:none;" />
 <path d="  M 75,31  L 75,30  L 74,30  L 74,31  Z  " style="fill:rgb(0, 0, 0); fill-opacity:0.925; stroke:none;" />
 <path d="  M 76,8  L 75,8  L 75,9  L 76,9  Z  " style="fill:rgb(0, 0, 0); fill-opacity:0.667; stroke:none;" />
 <path d="  M 77,10  L 77,9  L 76,9  L 76,10  Z  " style="fill:rgb(0, 0, 0); fill-opacity:0.922; stroke:none;" />
 <path d="  M 77,10  L 77,11  L 78,11  L 78,10  Z  " style="fill:rgb(0, 0, 0); fill-opacity:0.663; stroke:none;" />
 <path d="  M 79,31  L 80,31  L 80,30  L 79,30  Z  " style="fill:rgb(0, 0, 0); fill-opacity:0.439; stroke:none;" />
 <path d="  M 80,32  L 81,32  L 81,31  L 80,31  Z  " style="fill:rgb(0, 0, 0); fill-opacity:0.576; stroke:none;" />
 <path d="  M 86,36  L 86,37  L 87,37  L 87,36  Z  " style="fill:rgb(0, 0, 0); fill-opacity:0.416; stroke:none;" />
 <path d="  M 88,44  L 88,45  L 89,45  L 89,44  Z  " style="fill:rgb(0, 0, 0); fill-opacity:0.741; stroke:none;" />
 <path d="  M 90,39  L 89,39  L 89,40  L 90,40  Z  " style="fill:rgb(0, 0, 0); fill-opacity:0.365; stroke:none;" />
 <path d="  M 90,44  L 90,43  L 89,43  L 89,44  Z  " style="fill:rgb(0, 0, 0); fill-opacity:0.467; stroke:none;" />
</svg>
