<?xml version="1.0" encoding="UTF-8" standalone="no"?>
<!DOCTYPE svg PUBLIC "-//W3C//DTD SVG 1.1//EN" 
  "http://www.w3.org/Graphics/SVG/1.1/DTD/svg11.dtd">
<svg width="64" height="64"
	 xmlns="http://www.w3.org/2000/svg" version="1.1">
 <path d="  M 1,61  L 1,60  L 0,60  L 0,61  Z  " style="fill:rgb(0, 0, 0); fill-opacity:0.008; stroke:none;" />
 <path d="  M 0,64  L 1,64  L 1,63  L 0,63  Z  " style="fill:rgb(0, 0, 0); fill-opacity:0.008; stroke:none;" />
 <path d="  M 4,28  L 4,29  L 5,29  L 5,28  Z  " style="fill:rgb(0, 0, 0); fill-opacity:0.008; stroke:none;" />
 <path d="  M 5,34  L 5,35  L 6,35  L 6,34  Z  " style="fill:rgb(0, 0, 0); fill-opacity:0.008; stroke:none;" />
 <path d="  M 9,64  L 9,63  L 8,63  L 8,64  Z  " style="fill:rgb(0, 0, 0); fill-opacity:0.008; stroke:none;" />
 <path d="  M 57,34  L 56,34  L 56,35  L 57,35  Z  " style="fill:rgb(0, 0, 0); fill-opacity:0.008; stroke:none;" />
 <path d="  M 63,64  L 64,64  L 64,63  L 63,63  Z  " style="fill:rgb(0, 0, 0); fill-opacity:0.008; stroke:none;" />
 <path d="  M 1,62  L 1,61  L 0,61  L 0,62  Z  " style="fill:rgb(0, 0, 0); fill-opacity:0.369; stroke:none;" />
 <path d="  M 6,36  L 6,35  L 5,35  L 5,36  Z  " style="fill:rgb(0, 0, 0); fill-opacity:0.369; stroke:none;" />
 <path d="  M 58,0  L 58,1  L 59,1  L 59,0  Z  " style="fill:rgb(0, 0, 0); fill-opacity:0.369; stroke:none;" />
 <path d="  M 0,62  L 0,63  L 1,63  L 1,62  Z  " style="fill:rgb(0, 0, 0); fill-opacity:0.365; stroke:none;" />
 <path d="  M 2,61  L 2,60  L 1,60  L 1,61  Z  " style="fill:rgb(0, 0, 0); fill-opacity:0.365; stroke:none;" />
 <path d="  M 7,34  L 6,34  L 6,35  L 7,35  Z  " style="fill:rgb(0, 0, 0); fill-opacity:0.365; stroke:none;" />
 <path d="  M 16,5  L 15,5  L 15,6  L 16,6  Z  " style="fill:rgb(0, 0, 0); fill-opacity:0.365; stroke:none;" />
 <path d="  M 25,5  L 25,6  L 26,6  L 26,5  Z  " style="fill:rgb(0, 0, 0); fill-opacity:0.365; stroke:none;" />
 <path d="  M 36,5  L 35,5  L 35,6  L 36,6  Z  " style="fill:rgb(0, 0, 0); fill-opacity:0.365; stroke:none;" />
 <path d="  M 55,34  L 55,35  L 56,35  L 56,34  Z  " style="fill:rgb(0, 0, 0); fill-opacity:0.365; stroke:none;" />
 <path d="  M 57,36  L 57,35  L 56,35  L 56,36  Z  " style="fill:rgb(0, 0, 0); fill-opacity:0.365; stroke:none;" />
 <path d="  M 2,19  L 1,19  L 1,20  L 2,20  Z  " style="fill:rgb(0, 0, 0); fill-opacity:0.039; stroke:none;" />
 <path d="  M 3,14  L 2,14  L 2,15  L 3,15  Z  " style="fill:rgb(0, 0, 0); fill-opacity:0.039; stroke:none;" />
 <path d="  M 14,24  L 15,24  L 15,23  L 14,23  Z  " style="fill:rgb(0, 0, 0); fill-opacity:0.039; stroke:none;" />
 <path d="  M 25,23  L 24,23  L 24,24  L 25,24  Z  " style="fill:rgb(0, 0, 0); fill-opacity:0.039; stroke:none;" />
 <path d="  M 34,23  L 34,24  L 35,24  L 35,23  Z  " style="fill:rgb(0, 0, 0); fill-opacity:0.039; stroke:none;" />
 <path d="  M 42,20  L 42,19  L 41,19  L 41,20  Z  " style="fill:rgb(0, 0, 0); fill-opacity:0.039; stroke:none;" />
 <path d="  M 52,19  L 51,19  L 51,20  L 52,20  Z  " style="fill:rgb(0, 0, 0); fill-opacity:0.039; stroke:none;" />
 <path d="  M 52,15  L 53,15  L 53,14  L 52,14  Z  " style="fill:rgb(0, 0, 0); fill-opacity:0.039; stroke:none;" />
 <path d="  M 54,9  L 53,9  L 53,10  L 54,10  Z  " style="fill:rgb(0, 0, 0); fill-opacity:0.039; stroke:none;" />
 <path d="  M 2,21  L 2,20  L 1,20  L 1,21  Z  " style="fill:rgb(0, 0, 0); fill-opacity:0.224; stroke:none;" />
 <path d="  M 12,21  L 12,20  L 11,20  L 11,21  Z  " style="fill:rgb(0, 0, 0); fill-opacity:0.224; stroke:none;" />
 <path d="  M 21,20  L 21,21  L 22,21  L 22,20  Z  " style="fill:rgb(0, 0, 0); fill-opacity:0.224; stroke:none;" />
 <path d="  M 31,21  L 32,21  L 32,20  L 31,20  Z  " style="fill:rgb(0, 0, 0); fill-opacity:0.224; stroke:none;" />
 <path d="  M 52,21  L 52,20  L 51,20  L 51,21  Z  " style="fill:rgb(0, 0, 0); fill-opacity:0.224; stroke:none;" />
 <path d="  M 53,16  L 53,15  L 52,15  L 52,16  Z  " style="fill:rgb(0, 0, 0); fill-opacity:0.224; stroke:none;" />
 <path d="  M 54,11  L 54,10  L 53,10  L 53,11  Z  " style="fill:rgb(0, 0, 0); fill-opacity:0.224; stroke:none;" />
 <path d="  M 1,21  L 1,22  L 2,22  L 2,21  Z  " style="fill:rgb(0, 0, 0); fill-opacity:0.420; stroke:none;" />
 <path d="  M 12,21  L 11,21  L 11,22  L 12,22  Z  " style="fill:rgb(0, 0, 0); fill-opacity:0.420; stroke:none;" />
 <path d="  M 13,17  L 13,16  L 12,16  L 12,17  Z  " style="fill:rgb(0, 0, 0); fill-opacity:0.420; stroke:none;" />
 <path d="  M 22,21  L 21,21  L 21,22  L 22,22  Z  " style="fill:rgb(0, 0, 0); fill-opacity:0.420; stroke:none;" />
 <path d="  M 22,17  L 23,17  L 23,16  L 22,16  Z  " style="fill:rgb(0, 0, 0); fill-opacity:0.420; stroke:none;" />
 <path d="  M 32,21  L 31,21  L 31,22  L 32,22  Z  " style="fill:rgb(0, 0, 0); fill-opacity:0.420; stroke:none;" />
 <path d="  M 32,17  L 33,17  L 33,16  L 32,16  Z  " style="fill:rgb(0, 0, 0); fill-opacity:0.420; stroke:none;" />
 <path d="  M 41,21  L 41,22  L 42,22  L 42,21  Z  " style="fill:rgb(0, 0, 0); fill-opacity:0.420; stroke:none;" />
 <path d="  M 51,21  L 51,22  L 52,22  L 52,21  Z  " style="fill:rgb(0, 0, 0); fill-opacity:0.420; stroke:none;" />
 <path d="  M 55,6  L 54,6  L 54,7  L 55,7  Z  " style="fill:rgb(0, 0, 0); fill-opacity:0.420; stroke:none;" />
 <path d="  M 2,23  L 2,22  L 1,22  L 1,23  Z  " style="fill:rgb(0, 0, 0); fill-opacity:0.549; stroke:none;" />
 <path d="  M 2,24  L 2,23  L 1,23  L 1,24  Z  " style="fill:rgb(0, 0, 0); fill-opacity:0.545; stroke:none;" />
 <path d="  M 2,24  L 1,24  L 1,25  L 2,25  Z  " style="fill:rgb(0, 0, 0); fill-opacity:0.353; stroke:none;" />
 <path d="  M 16,5  L 16,6  L 17,6  L 17,5  Z  " style="fill:rgb(0, 0, 0); fill-opacity:0.353; stroke:none;" />
 <path d="  M 27,5  L 26,5  L 26,6  L 27,6  Z  " style="fill:rgb(0, 0, 0); fill-opacity:0.353; stroke:none;" />
 <path d="  M 37,6  L 37,5  L 36,5  L 36,6  Z  " style="fill:rgb(0, 0, 0); fill-opacity:0.353; stroke:none;" />
 <path d="  M 2,25  L 1,25  L 1,26  L 2,26  Z  " style="fill:rgb(0, 0, 0); fill-opacity:0.043; stroke:none;" />
 <path d="  M 11,24  L 12,24  L 12,23  L 11,23  Z  " style="fill:rgb(0, 0, 0); fill-opacity:0.043; stroke:none;" />
 <path d="  M 22,23  L 21,23  L 21,24  L 22,24  Z  " style="fill:rgb(0, 0, 0); fill-opacity:0.043; stroke:none;" />
 <path d="  M 31,23  L 31,24  L 32,24  L 32,23  Z  " style="fill:rgb(0, 0, 0); fill-opacity:0.043; stroke:none;" />
 <path d="  M 42,23  L 41,23  L 41,24  L 42,24  Z  " style="fill:rgb(0, 0, 0); fill-opacity:0.043; stroke:none;" />
 <path d="  M 56,19  L 55,19  L 55,20  L 56,20  Z  " style="fill:rgb(0, 0, 0); fill-opacity:0.043; stroke:none;" />
 <path d="  M 21,61  L 21,36  L 20,36  L 20,35  L 6,35  L 6,61  L 1,61  L 1,63  L 8,63  L 8,37  L 18,37  L 18,62  L 19,62  L 19,63  L 63,63  L 63,3  L 62,3  L 62,2  L 61,2  L 61,1  L 58,1  L 58,2  L 57,2  L 57,3  L 56,3  L 56,5  L 55,5  L 55,10  L 54,10  L 54,15  L 53,15  L 53,20  L 52,20  L 52,24  L 51,24  L 51,25  L 49,25  L 49,26  L 5,26  L 5,25  L 4,25  L 4,19  L 5,19  L 5,14  L 6,14  L 6,9  L 7,9  L 7,4  L 8,4  L 8,3  L 45,3  L 45,10  L 44,10  L 44,15  L 43,15  L 43,20  L 42,20  L 42,23  L 44,23  L 44,19  L 45,19  L 45,14  L 46,14  L 46,9  L 47,9  L 47,2  L 45,2  L 45,1  L 8,1  L 8,2  L 6,2  L 6,5  L 5,5  L 5,10  L 4,10  L 4,15  L 3,15  L 3,20  L 2,20  L 2,25  L 3,25  L 3,26  L 4,26  L 4,27  L 5,27  L 5,28  L 49,28  L 49,27  L 51,27  L 51,26  L 52,26  L 52,25  L 53,25  L 53,23  L 54,23  L 54,19  L 55,19  L 55,14  L 56,14  L 56,9  L 57,9  L 57,4  L 58,4  L 58,3  L 61,3  L 61,61  Z  " style="fill:rgb(0, 0, 0); fill-opacity:1.000; stroke:none;" />
 <path d="  M 13,20  L 12,20  L 12,23  L 14,23  L 14,19  L 15,19  L 15,14  L 16,14  L 16,9  L 17,9  L 17,6  L 15,6  L 15,10  L 14,10  L 14,15  L 13,15  Z  " style="fill:rgb(0, 0, 0); fill-opacity:1.000; stroke:none;" />
 <path d="  M 23,20  L 22,20  L 22,23  L 24,23  L 24,19  L 25,19  L 25,14  L 26,14  L 26,9  L 27,9  L 27,6  L 25,6  L 25,10  L 24,10  L 24,15  L 23,15  Z  " style="fill:rgb(0, 0, 0); fill-opacity:1.000; stroke:none;" />
 <path d="  M 55,56  L 55,55  L 56,55  L 56,35  L 27,35  L 27,36  L 26,36  L 26,54  L 27,54  L 27,55  L 28,55  L 28,56  Z  M 29,53  L 29,37  L 54,37  L 54,53  Z  " style="fill:rgb(0, 0, 0); fill-opacity:1.000; stroke:none;" />
 <path d="  M 35,10  L 34,10  L 34,15  L 33,15  L 33,20  L 32,20  L 32,23  L 34,23  L 34,19  L 35,19  L 35,14  L 36,14  L 36,9  L 37,9  L 37,6  L 35,6  Z  " style="fill:rgb(0, 0, 0); fill-opacity:1.000; stroke:none;" />
 <path d="  M 2,63  L 1,63  L 1,64  L 2,64  Z  " style="fill:rgb(0, 0, 0); fill-opacity:0.361; stroke:none;" />
 <path d="  M 7,63  L 7,64  L 8,64  L 8,63  Z  " style="fill:rgb(0, 0, 0); fill-opacity:0.361; stroke:none;" />
 <path d="  M 9,62  L 8,62  L 8,63  L 9,63  Z  " style="fill:rgb(0, 0, 0); fill-opacity:0.361; stroke:none;" />
 <path d="  M 63,63  L 62,63  L 62,64  L 63,64  Z  " style="fill:rgb(0, 0, 0); fill-opacity:0.361; stroke:none;" />
 <path d="  M 64,62  L 63,62  L 63,63  L 64,63  Z  " style="fill:rgb(0, 0, 0); fill-opacity:0.361; stroke:none;" />
 <path d="  M 3,15  L 2,15  L 2,16  L 3,16  Z  " style="fill:rgb(0, 0, 0); fill-opacity:0.231; stroke:none;" />
 <path d="  M 56,18  L 55,18  L 55,19  L 56,19  Z  " style="fill:rgb(0, 0, 0); fill-opacity:0.231; stroke:none;" />
 <path d="  M 2,17  L 3,17  L 3,16  L 2,16  Z  " style="fill:rgb(0, 0, 0); fill-opacity:0.427; stroke:none;" />
 <path d="  M 3,17  L 2,17  L 2,18  L 3,18  Z  " style="fill:rgb(0, 0, 0); fill-opacity:0.627; stroke:none;" />
 <path d="  M 3,19  L 3,18  L 2,18  L 2,19  Z  " style="fill:rgb(0, 0, 0); fill-opacity:0.827; stroke:none;" />
 <path d="  M 55,21  L 55,20  L 54,20  L 54,21  Z  " style="fill:rgb(0, 0, 0); fill-opacity:0.827; stroke:none;" />
 <path d="  M 2,20  L 3,20  L 3,19  L 2,19  Z  " style="fill:rgb(0, 0, 0); fill-opacity:0.984; stroke:none;" />
 <path d="  M 13,19  L 12,19  L 12,20  L 13,20  Z  " style="fill:rgb(0, 0, 0); fill-opacity:0.984; stroke:none;" />
 <path d="  M 22,19  L 22,20  L 23,20  L 23,19  Z  " style="fill:rgb(0, 0, 0); fill-opacity:0.984; stroke:none;" />
 <path d="  M 32,19  L 32,20  L 33,20  L 33,19  Z  " style="fill:rgb(0, 0, 0); fill-opacity:0.984; stroke:none;" />
 <path d="  M 43,19  L 42,19  L 42,20  L 43,20  Z  " style="fill:rgb(0, 0, 0); fill-opacity:0.984; stroke:none;" />
 <path d="  M 52,19  L 52,20  L 53,20  L 53,19  Z  " style="fill:rgb(0, 0, 0); fill-opacity:0.984; stroke:none;" />
 <path d="  M 54,15  L 54,14  L 53,14  L 53,15  Z  " style="fill:rgb(0, 0, 0); fill-opacity:0.984; stroke:none;" />
 <path d="  M 55,9  L 54,9  L 54,10  L 55,10  Z  " style="fill:rgb(0, 0, 0); fill-opacity:0.984; stroke:none;" />
 <path d="  M 55,5  L 56,5  L 56,4  L 55,4  Z  " style="fill:rgb(0, 0, 0); fill-opacity:0.984; stroke:none;" />
 <path d="  M 3,25  L 2,25  L 2,26  L 3,26  Z  " style="fill:rgb(0, 0, 0); fill-opacity:0.906; stroke:none;" />
 <path d="  M 47,4  L 47,5  L 48,5  L 48,4  Z  " style="fill:rgb(0, 0, 0); fill-opacity:0.906; stroke:none;" />
 <path d="  M 53,25  L 52,25  L 52,26  L 53,26  Z  " style="fill:rgb(0, 0, 0); fill-opacity:0.906; stroke:none;" />
 <path d="  M 2,26  L 2,27  L 3,27  L 3,26  Z  " style="fill:rgb(0, 0, 0); fill-opacity:0.282; stroke:none;" />
 <path d="  M 49,28  L 48,28  L 48,29  L 49,29  Z  " style="fill:rgb(0, 0, 0); fill-opacity:0.282; stroke:none;" />
 <path d="  M 2,60  L 2,61  L 5,61  L 5,60  Z  " style="fill:rgb(0, 0, 0); fill-opacity:0.467; stroke:none;" />
 <path d="  M 7,25  L 7,26  L 47,26  L 47,25  Z  " style="fill:rgb(0, 0, 0); fill-opacity:0.467; stroke:none;" />
 <path d="  M 47,29  L 47,28  L 7,28  L 7,29  Z  " style="fill:rgb(0, 0, 0); fill-opacity:0.467; stroke:none;" />
 <path d="  M 7,34  L 7,35  L 19,35  L 19,34  Z  " style="fill:rgb(0, 0, 0); fill-opacity:0.467; stroke:none;" />
 <path d="  M 8,0  L 8,1  L 9,1  L 9,0  Z  " style="fill:rgb(0, 0, 0); fill-opacity:0.467; stroke:none;" />
 <path d="  M 21,60  L 21,61  L 60,61  L 60,60  Z  " style="fill:rgb(0, 0, 0); fill-opacity:0.467; stroke:none;" />
 <path d="  M 55,35  L 55,34  L 28,34  L 28,35  Z  " style="fill:rgb(0, 0, 0); fill-opacity:0.467; stroke:none;" />
 <path d="  M 2,63  L 2,64  L 7,64  L 7,63  Z  " style="fill:rgb(0, 0, 0); fill-opacity:0.533; stroke:none;" />
 <path d="  M 18,38  L 18,37  L 9,37  L 9,38  Z  " style="fill:rgb(0, 0, 0); fill-opacity:0.533; stroke:none;" />
 <path d="  M 10,3  L 10,4  L 43,4  L 43,3  Z  " style="fill:rgb(0, 0, 0); fill-opacity:0.533; stroke:none;" />
 <path d="  M 20,63  L 20,64  L 62,64  L 62,63  Z  " style="fill:rgb(0, 0, 0); fill-opacity:0.533; stroke:none;" />
 <path d="  M 26,55  L 26,56  L 27,56  L 27,55  Z  " style="fill:rgb(0, 0, 0); fill-opacity:0.533; stroke:none;" />
 <path d="  M 29,37  L 29,38  L 53,38  L 53,37  Z  " style="fill:rgb(0, 0, 0); fill-opacity:0.533; stroke:none;" />
 <path d="  M 44,24  L 44,23  L 43,23  L 43,24  Z  " style="fill:rgb(0, 0, 0); fill-opacity:0.533; stroke:none;" />
 <path d="  M 4,9  L 3,9  L 3,10  L 4,10  Z  " style="fill:rgb(0, 0, 0); fill-opacity:0.047; stroke:none;" />
 <path d="  M 4,4  L 4,5  L 5,5  L 5,4  Z  " style="fill:rgb(0, 0, 0); fill-opacity:0.047; stroke:none;" />
 <path d="  M 42,14  L 42,15  L 43,15  L 43,14  Z  " style="fill:rgb(0, 0, 0); fill-opacity:0.047; stroke:none;" />
 <path d="  M 43,10  L 44,10  L 44,9  L 43,9  Z  " style="fill:rgb(0, 0, 0); fill-opacity:0.047; stroke:none;" />
 <path d="  M 3,10  L 3,11  L 4,11  L 4,10  Z  " style="fill:rgb(0, 0, 0); fill-opacity:0.235; stroke:none;" />
 <path d="  M 4,5  L 4,6  L 5,6  L 5,5  Z  " style="fill:rgb(0, 0, 0); fill-opacity:0.235; stroke:none;" />
 <path d="  M 42,16  L 43,16  L 43,15  L 42,15  Z  " style="fill:rgb(0, 0, 0); fill-opacity:0.235; stroke:none;" />
 <path d="  M 57,14  L 57,13  L 56,13  L 56,14  Z  " style="fill:rgb(0, 0, 0); fill-opacity:0.235; stroke:none;" />
 <path d="  M 3,12  L 4,12  L 4,11  L 3,11  Z  " style="fill:rgb(0, 0, 0); fill-opacity:0.435; stroke:none;" />
 <path d="  M 5,7  L 5,6  L 4,6  L 4,7  Z  " style="fill:rgb(0, 0, 0); fill-opacity:0.435; stroke:none;" />
 <path d="  M 43,17  L 43,16  L 42,16  L 42,17  Z  " style="fill:rgb(0, 0, 0); fill-opacity:0.435; stroke:none;" />
 <path d="  M 4,12  L 3,12  L 3,13  L 4,13  Z  " style="fill:rgb(0, 0, 0); fill-opacity:0.635; stroke:none;" />
 <path d="  M 5,7  L 4,7  L 4,8  L 5,8  Z  " style="fill:rgb(0, 0, 0); fill-opacity:0.635; stroke:none;" />
 <path d="  M 3,14  L 4,14  L 4,13  L 3,13  Z  " style="fill:rgb(0, 0, 0); fill-opacity:0.835; stroke:none;" />
 <path d="  M 44,3  L 44,4  L 45,4  L 45,3  Z  " style="fill:rgb(0, 0, 0); fill-opacity:0.835; stroke:none;" />
 <path d="  M 44,20  L 44,21  L 45,21  L 45,20  Z  " style="fill:rgb(0, 0, 0); fill-opacity:0.835; stroke:none;" />
 <path d="  M 48,6  L 48,5  L 47,5  L 47,6  Z  " style="fill:rgb(0, 0, 0); fill-opacity:0.835; stroke:none;" />
 <path d="  M 55,15  L 55,16  L 56,16  L 56,15  Z  " style="fill:rgb(0, 0, 0); fill-opacity:0.835; stroke:none;" />
 <path d="  M 3,15  L 4,15  L 4,14  L 3,14  Z  " style="fill:rgb(0, 0, 0); fill-opacity:0.988; stroke:none;" />
 <path d="  M 5,10  L 5,9  L 4,9  L 4,10  Z  " style="fill:rgb(0, 0, 0); fill-opacity:0.988; stroke:none;" />
 <path d="  M 7,1  L 7,2  L 8,2  L 8,1  Z  " style="fill:rgb(0, 0, 0); fill-opacity:0.988; stroke:none;" />
 <path d="  M 44,14  L 43,14  L 43,15  L 44,15  Z  " style="fill:rgb(0, 0, 0); fill-opacity:0.988; stroke:none;" />
 <path d="  M 45,1  L 45,2  L 46,2  L 46,1  Z  " style="fill:rgb(0, 0, 0); fill-opacity:0.988; stroke:none;" />
 <path d="  M 55,19  L 54,19  L 54,20  L 55,20  Z  " style="fill:rgb(0, 0, 0); fill-opacity:0.988; stroke:none;" />
 <path d="  M 3,27  L 4,27  L 4,26  L 3,26  Z  " style="fill:rgb(0, 0, 0); fill-opacity:0.976; stroke:none;" />
 <path d="  M 27,55  L 27,54  L 26,54  L 26,55  Z  " style="fill:rgb(0, 0, 0); fill-opacity:0.976; stroke:none;" />
 <path d="  M 27,56  L 28,56  L 28,55  L 27,55  Z  " style="fill:rgb(0, 0, 0); fill-opacity:0.976; stroke:none;" />
 <path d="  M 4,27  L 3,27  L 3,28  L 4,28  Z  " style="fill:rgb(0, 0, 0); fill-opacity:0.251; stroke:none;" />
 <path d="  M 17,14  L 17,13  L 16,13  L 16,14  Z  " style="fill:rgb(0, 0, 0); fill-opacity:0.251; stroke:none;" />
 <path d="  M 26,13  L 26,14  L 27,14  L 27,13  Z  " style="fill:rgb(0, 0, 0); fill-opacity:0.251; stroke:none;" />
 <path d="  M 37,13  L 36,13  L 36,14  L 37,14  Z  " style="fill:rgb(0, 0, 0); fill-opacity:0.251; stroke:none;" />
 <path d="  M 5,8  L 4,8  L 4,9  L 5,9  Z  " style="fill:rgb(0, 0, 0); fill-opacity:0.839; stroke:none;" />
 <path d="  M 44,13  L 43,13  L 43,14  L 44,14  Z  " style="fill:rgb(0, 0, 0); fill-opacity:0.839; stroke:none;" />
 <path d="  M 46,15  L 45,15  L 45,16  L 46,16  Z  " style="fill:rgb(0, 0, 0); fill-opacity:0.839; stroke:none;" />
 <path d="  M 56,10  L 56,11  L 57,11  L 57,10  Z  " style="fill:rgb(0, 0, 0); fill-opacity:0.839; stroke:none;" />
 <path d="  M 4,19  L 4,20  L 5,20  L 5,19  Z  " style="fill:rgb(0, 0, 0); fill-opacity:0.996; stroke:none;" />
 <path d="  M 6,15  L 6,14  L 5,14  L 5,15  Z  " style="fill:rgb(0, 0, 0); fill-opacity:0.996; stroke:none;" />
 <path d="  M 7,9  L 6,9  L 6,10  L 7,10  Z  " style="fill:rgb(0, 0, 0); fill-opacity:0.996; stroke:none;" />
 <path d="  M 15,19  L 14,19  L 14,20  L 15,20  Z  " style="fill:rgb(0, 0, 0); fill-opacity:0.996; stroke:none;" />
 <path d="  M 15,14  L 15,15  L 16,15  L 16,14  Z  " style="fill:rgb(0, 0, 0); fill-opacity:0.996; stroke:none;" />
 <path d="  M 16,10  L 17,10  L 17,9  L 16,9  Z  " style="fill:rgb(0, 0, 0); fill-opacity:0.996; stroke:none;" />
 <path d="  M 25,20  L 25,19  L 24,19  L 24,20  Z  " style="fill:rgb(0, 0, 0); fill-opacity:0.996; stroke:none;" />
 <path d="  M 25,15  L 26,15  L 26,14  L 25,14  Z  " style="fill:rgb(0, 0, 0); fill-opacity:0.996; stroke:none;" />
 <path d="  M 27,10  L 27,9  L 26,9  L 26,10  Z  " style="fill:rgb(0, 0, 0); fill-opacity:0.996; stroke:none;" />
 <path d="  M 35,20  L 35,19  L 34,19  L 34,20  Z  " style="fill:rgb(0, 0, 0); fill-opacity:0.996; stroke:none;" />
 <path d="  M 35,15  L 36,15  L 36,14  L 35,14  Z  " style="fill:rgb(0, 0, 0); fill-opacity:0.996; stroke:none;" />
 <path d="  M 37,10  L 37,9  L 36,9  L 36,10  Z  " style="fill:rgb(0, 0, 0); fill-opacity:0.996; stroke:none;" />
 <path d="  M 51,24  L 52,24  L 52,23  L 51,23  Z  " style="fill:rgb(0, 0, 0); fill-opacity:0.996; stroke:none;" />
 <path d="  M 5,20  L 4,20  L 4,21  L 5,21  Z  " style="fill:rgb(0, 0, 0); fill-opacity:0.847; stroke:none;" />
 <path d="  M 5,15  L 5,16  L 6,16  L 6,15  Z  " style="fill:rgb(0, 0, 0); fill-opacity:0.847; stroke:none;" />
 <path d="  M 6,11  L 7,11  L 7,10  L 6,10  Z  " style="fill:rgb(0, 0, 0); fill-opacity:0.847; stroke:none;" />
 <path d="  M 15,20  L 14,20  L 14,21  L 15,21  Z  " style="fill:rgb(0, 0, 0); fill-opacity:0.847; stroke:none;" />
 <path d="  M 25,21  L 25,20  L 24,20  L 24,21  Z  " style="fill:rgb(0, 0, 0); fill-opacity:0.847; stroke:none;" />
 <path d="  M 34,20  L 34,21  L 35,21  L 35,20  Z  " style="fill:rgb(0, 0, 0); fill-opacity:0.847; stroke:none;" />
 <path d="  M 44,9  L 45,9  L 45,8  L 44,8  Z  " style="fill:rgb(0, 0, 0); fill-opacity:0.847; stroke:none;" />
 <path d="  M 4,21  L 4,22  L 5,22  L 5,21  Z  " style="fill:rgb(0, 0, 0); fill-opacity:0.651; stroke:none;" />
 <path d="  M 7,7  L 8,7  L 8,6  L 7,6  Z  " style="fill:rgb(0, 0, 0); fill-opacity:0.651; stroke:none;" />
 <path d="  M 14,22  L 15,22  L 15,21  L 14,21  Z  " style="fill:rgb(0, 0, 0); fill-opacity:0.651; stroke:none;" />
 <path d="  M 16,17  L 16,16  L 15,16  L 15,17  Z  " style="fill:rgb(0, 0, 0); fill-opacity:0.651; stroke:none;" />
 <path d="  M 24,21  L 24,22  L 25,22  L 25,21  Z  " style="fill:rgb(0, 0, 0); fill-opacity:0.651; stroke:none;" />
 <path d="  M 25,17  L 26,17  L 26,16  L 25,16  Z  " style="fill:rgb(0, 0, 0); fill-opacity:0.651; stroke:none;" />
 <path d="  M 35,22  L 35,21  L 34,21  L 34,22  Z  " style="fill:rgb(0, 0, 0); fill-opacity:0.651; stroke:none;" />
 <path d="  M 35,16  L 35,17  L 36,17  L 36,16  Z  " style="fill:rgb(0, 0, 0); fill-opacity:0.651; stroke:none;" />
 <path d="  M 47,7  L 48,7  L 48,6  L 47,6  Z  " style="fill:rgb(0, 0, 0); fill-opacity:0.651; stroke:none;" />
 <path d="  M 4,22  L 4,23  L 5,23  L 5,22  Z  " style="fill:rgb(0, 0, 0); fill-opacity:0.475; stroke:none;" />
 <path d="  M 56,54  L 56,55  L 57,55  L 57,54  Z  " style="fill:rgb(0, 0, 0); fill-opacity:0.475; stroke:none;" />
 <path d="  M 5,24  L 5,23  L 4,23  L 4,24  Z  " style="fill:rgb(0, 0, 0); fill-opacity:0.490; stroke:none;" />
 <path d="  M 20,64  L 20,63  L 19,63  L 19,64  Z  " style="fill:rgb(0, 0, 0); fill-opacity:0.490; stroke:none;" />
 <path d="  M 4,25  L 5,25  L 5,24  L 4,24  Z  " style="fill:rgb(0, 0, 0); fill-opacity:0.878; stroke:none;" />
 <path d="  M 5,28  L 5,27  L 4,27  L 4,28  Z  " style="fill:rgb(0, 0, 0); fill-opacity:0.855; stroke:none;" />
 <path d="  M 17,11  L 17,10  L 16,10  L 16,11  Z  " style="fill:rgb(0, 0, 0); fill-opacity:0.855; stroke:none;" />
 <path d="  M 26,11  L 27,11  L 27,10  L 26,10  Z  " style="fill:rgb(0, 0, 0); fill-opacity:0.855; stroke:none;" />
 <path d="  M 36,10  L 36,11  L 37,11  L 37,10  Z  " style="fill:rgb(0, 0, 0); fill-opacity:0.855; stroke:none;" />
 <path d="  M 5,3  L 6,3  L 6,2  L 5,2  Z  " style="fill:rgb(0, 0, 0); fill-opacity:0.341; stroke:none;" />
 <path d="  M 5,3  L 5,4  L 6,4  L 6,3  Z  " style="fill:rgb(0, 0, 0); fill-opacity:0.776; stroke:none;" />
 <path d="  M 49,25  L 48,25  L 48,26  L 49,26  Z  " style="fill:rgb(0, 0, 0); fill-opacity:0.776; stroke:none;" />
 <path d="  M 5,4  L 5,5  L 6,5  L 6,4  Z  " style="fill:rgb(0, 0, 0); fill-opacity:0.992; stroke:none;" />
 <path d="  M 7,5  L 8,5  L 8,4  L 7,4  Z  " style="fill:rgb(0, 0, 0); fill-opacity:0.992; stroke:none;" />
 <path d="  M 45,10  L 45,9  L 44,9  L 44,10  Z  " style="fill:rgb(0, 0, 0); fill-opacity:0.992; stroke:none;" />
 <path d="  M 45,19  L 44,19  L 44,20  L 45,20  Z  " style="fill:rgb(0, 0, 0); fill-opacity:0.992; stroke:none;" />
 <path d="  M 45,14  L 45,15  L 46,15  L 46,14  Z  " style="fill:rgb(0, 0, 0); fill-opacity:0.992; stroke:none;" />
 <path d="  M 47,9  L 46,9  L 46,10  L 47,10  Z  " style="fill:rgb(0, 0, 0); fill-opacity:0.992; stroke:none;" />
 <path d="  M 53,23  L 53,24  L 54,24  L 54,23  Z  " style="fill:rgb(0, 0, 0); fill-opacity:0.992; stroke:none;" />
 <path d="  M 55,15  L 56,15  L 56,14  L 55,14  Z  " style="fill:rgb(0, 0, 0); fill-opacity:0.992; stroke:none;" />
 <path d="  M 56,2  L 56,3  L 57,3  L 57,2  Z  " style="fill:rgb(0, 0, 0); fill-opacity:0.992; stroke:none;" />
 <path d="  M 57,10  L 57,9  L 56,9  L 56,10  Z  " style="fill:rgb(0, 0, 0); fill-opacity:0.992; stroke:none;" />
 <path d="  M 58,4  L 57,4  L 57,5  L 58,5  Z  " style="fill:rgb(0, 0, 0); fill-opacity:0.992; stroke:none;" />
 <path d="  M 5,17  L 6,17  L 6,16  L 5,16  Z  " style="fill:rgb(0, 0, 0); fill-opacity:0.647; stroke:none;" />
 <path d="  M 7,11  L 6,11  L 6,12  L 7,12  Z  " style="fill:rgb(0, 0, 0); fill-opacity:0.647; stroke:none;" />
 <path d="  M 57,6  L 57,7  L 58,7  L 58,6  Z  " style="fill:rgb(0, 0, 0); fill-opacity:0.647; stroke:none;" />
 <path d="  M 6,17  L 5,17  L 5,18  L 6,18  Z  " style="fill:rgb(0, 0, 0); fill-opacity:0.447; stroke:none;" />
 <path d="  M 6,13  L 7,13  L 7,12  L 6,12  Z  " style="fill:rgb(0, 0, 0); fill-opacity:0.447; stroke:none;" />
 <path d="  M 45,7  L 45,6  L 44,6  L 44,7  Z  " style="fill:rgb(0, 0, 0); fill-opacity:0.447; stroke:none;" />
 <path d="  M 57,8  L 58,8  L 58,7  L 57,7  Z  " style="fill:rgb(0, 0, 0); fill-opacity:0.447; stroke:none;" />
 <path d="  M 6,19  L 6,18  L 5,18  L 5,19  Z  " style="fill:rgb(0, 0, 0); fill-opacity:0.247; stroke:none;" />
 <path d="  M 6,13  L 6,14  L 7,14  L 7,13  Z  " style="fill:rgb(0, 0, 0); fill-opacity:0.247; stroke:none;" />
 <path d="  M 7,8  L 7,9  L 8,9  L 8,8  Z  " style="fill:rgb(0, 0, 0); fill-opacity:0.247; stroke:none;" />
 <path d="  M 16,18  L 15,18  L 15,19  L 16,19  Z  " style="fill:rgb(0, 0, 0); fill-opacity:0.247; stroke:none;" />
 <path d="  M 25,18  L 25,19  L 26,19  L 26,18  Z  " style="fill:rgb(0, 0, 0); fill-opacity:0.247; stroke:none;" />
 <path d="  M 36,18  L 35,18  L 35,19  L 36,19  Z  " style="fill:rgb(0, 0, 0); fill-opacity:0.247; stroke:none;" />
 <path d="  M 44,5  L 44,6  L 45,6  L 45,5  Z  " style="fill:rgb(0, 0, 0); fill-opacity:0.247; stroke:none;" />
 <path d="  M 48,8  L 47,8  L 47,9  L 48,9  Z  " style="fill:rgb(0, 0, 0); fill-opacity:0.247; stroke:none;" />
 <path d="  M 6,20  L 6,19  L 5,19  L 5,20  Z  " style="fill:rgb(0, 0, 0); fill-opacity:0.059; stroke:none;" />
 <path d="  M 7,15  L 7,14  L 6,14  L 6,15  Z  " style="fill:rgb(0, 0, 0); fill-opacity:0.059; stroke:none;" />
 <path d="  M 8,10  L 8,9  L 7,9  L 7,10  Z  " style="fill:rgb(0, 0, 0); fill-opacity:0.059; stroke:none;" />
 <path d="  M 15,19  L 15,20  L 16,20  L 16,19  Z  " style="fill:rgb(0, 0, 0); fill-opacity:0.059; stroke:none;" />
 <path d="  M 26,20  L 26,19  L 25,19  L 25,20  Z  " style="fill:rgb(0, 0, 0); fill-opacity:0.059; stroke:none;" />
 <path d="  M 35,20  L 36,20  L 36,19  L 35,19  Z  " style="fill:rgb(0, 0, 0); fill-opacity:0.059; stroke:none;" />
 <path d="  M 6,24  L 5,24  L 5,25  L 6,25  Z  " style="fill:rgb(0, 0, 0); fill-opacity:0.086; stroke:none;" />
 <path d="  M 6,25  L 5,25  L 5,26  L 6,26  Z  " style="fill:rgb(0, 0, 0); fill-opacity:0.910; stroke:none;" />
 <path d="  M 6,29  L 6,28  L 5,28  L 5,29  Z  " style="fill:rgb(0, 0, 0); fill-opacity:0.239; stroke:none;" />
 <path d="  M 45,18  L 45,19  L 46,19  L 46,18  Z  " style="fill:rgb(0, 0, 0); fill-opacity:0.239; stroke:none;" />
 <path d="  M 51,23  L 50,23  L 50,24  L 51,24  Z  " style="fill:rgb(0, 0, 0); fill-opacity:0.239; stroke:none;" />
 <path d="  M 5,60  L 6,60  L 6,36  L 5,36  Z  " style="fill:rgb(0, 0, 0); fill-opacity:0.502; stroke:none;" />
 <path d="  M 9,38  L 8,38  L 8,62  L 9,62  Z  " style="fill:rgb(0, 0, 0); fill-opacity:0.502; stroke:none;" />
 <path d="  M 54,38  L 53,38  L 53,53  L 54,53  Z  " style="fill:rgb(0, 0, 0); fill-opacity:0.502; stroke:none;" />
 <path d="  M 57,54  L 57,36  L 56,36  L 56,54  Z  " style="fill:rgb(0, 0, 0); fill-opacity:0.502; stroke:none;" />
 <path d="  M 60,60  L 61,60  L 61,5  L 60,5  Z  " style="fill:rgb(0, 0, 0); fill-opacity:0.502; stroke:none;" />
 <path d="  M 63,62  L 64,62  L 64,5  L 63,5  Z  " style="fill:rgb(0, 0, 0); fill-opacity:0.502; stroke:none;" />
 <path d="  M 6,60  L 5,60  L 5,61  L 6,61  Z  " style="fill:rgb(0, 0, 0); fill-opacity:0.733; stroke:none;" />
 <path d="  M 61,60  L 60,60  L 60,61  L 61,61  Z  " style="fill:rgb(0, 0, 0); fill-opacity:0.733; stroke:none;" />
 <path d="  M 6,1  L 6,2  L 7,2  L 7,1  Z  " style="fill:rgb(0, 0, 0); fill-opacity:0.498; stroke:none;" />
 <path d="  M 7,26  L 7,25  L 6,25  L 6,26  Z  " style="fill:rgb(0, 0, 0); fill-opacity:0.592; stroke:none;" />
 <path d="  M 6,28  L 6,29  L 7,29  L 7,28  Z  " style="fill:rgb(0, 0, 0); fill-opacity:0.404; stroke:none;" />
 <path d="  M 57,2  L 57,1  L 56,1  L 56,2  Z  " style="fill:rgb(0, 0, 0); fill-opacity:0.404; stroke:none;" />
 <path d="  M 8,1  L 8,0  L 7,0  L 7,1  Z  " style="fill:rgb(0, 0, 0); fill-opacity:0.173; stroke:none;" />
 <path d="  M 8,5  L 7,5  L 7,6  L 8,6  Z  " style="fill:rgb(0, 0, 0); fill-opacity:0.851; stroke:none;" />
 <path d="  M 15,15  L 15,16  L 16,16  L 16,15  Z  " style="fill:rgb(0, 0, 0); fill-opacity:0.851; stroke:none;" />
 <path d="  M 26,16  L 26,15  L 25,15  L 25,16  Z  " style="fill:rgb(0, 0, 0); fill-opacity:0.851; stroke:none;" />
 <path d="  M 36,15  L 35,15  L 35,16  L 36,16  Z  " style="fill:rgb(0, 0, 0); fill-opacity:0.851; stroke:none;" />
 <path d="  M 58,5  L 57,5  L 57,6  L 58,6  Z  " style="fill:rgb(0, 0, 0); fill-opacity:0.851; stroke:none;" />
 <path d="  M 8,8  L 8,7  L 7,7  L 7,8  Z  " style="fill:rgb(0, 0, 0); fill-opacity:0.451; stroke:none;" />
 <path d="  M 16,17  L 15,17  L 15,18  L 16,18  Z  " style="fill:rgb(0, 0, 0); fill-opacity:0.451; stroke:none;" />
 <path d="  M 17,8  L 18,8  L 18,7  L 17,7  Z  " style="fill:rgb(0, 0, 0); fill-opacity:0.451; stroke:none;" />
 <path d="  M 26,18  L 26,17  L 25,17  L 25,18  Z  " style="fill:rgb(0, 0, 0); fill-opacity:0.451; stroke:none;" />
 <path d="  M 27,7  L 27,8  L 28,8  L 28,7  Z  " style="fill:rgb(0, 0, 0); fill-opacity:0.451; stroke:none;" />
 <path d="  M 36,17  L 35,17  L 35,18  L 36,18  Z  " style="fill:rgb(0, 0, 0); fill-opacity:0.451; stroke:none;" />
 <path d="  M 37,7  L 37,8  L 38,8  L 38,7  Z  " style="fill:rgb(0, 0, 0); fill-opacity:0.451; stroke:none;" />
 <path d="  M 48,8  L 48,7  L 47,7  L 47,8  Z  " style="fill:rgb(0, 0, 0); fill-opacity:0.451; stroke:none;" />
 <path d="  M 8,3  L 8,4  L 9,4  L 9,3  Z  " style="fill:rgb(0, 0, 0); fill-opacity:0.808; stroke:none;" />
 <path d="  M 58,3  L 58,4  L 59,4  L 59,3  Z  " style="fill:rgb(0, 0, 0); fill-opacity:0.808; stroke:none;" />
 <path d="  M 8,5  L 9,5  L 9,4  L 8,4  Z  " style="fill:rgb(0, 0, 0); fill-opacity:0.078; stroke:none;" />
 <path d="  M 59,5  L 59,4  L 58,4  L 58,5  Z  " style="fill:rgb(0, 0, 0); fill-opacity:0.078; stroke:none;" />
 <path d="  M 9,37  L 8,37  L 8,38  L 9,38  Z  " style="fill:rgb(0, 0, 0); fill-opacity:0.769; stroke:none;" />
 <path d="  M 54,37  L 53,37  L 53,38  L 54,38  Z  " style="fill:rgb(0, 0, 0); fill-opacity:0.769; stroke:none;" />
 <path d="  M 10,1  L 10,0  L 9,0  L 9,1  Z  " style="fill:rgb(0, 0, 0); fill-opacity:0.596; stroke:none;" />
 <path d="  M 9,4  L 10,4  L 10,3  L 9,3  Z  " style="fill:rgb(0, 0, 0); fill-opacity:0.537; stroke:none;" />
 <path d="  M 44,1  L 44,0  L 10,0  L 10,1  Z  " style="fill:rgb(0, 0, 0); fill-opacity:0.600; stroke:none;" />
 <path d="  M 12,19  L 11,19  L 11,20  L 12,20  Z  " style="fill:rgb(0, 0, 0); fill-opacity:0.035; stroke:none;" />
 <path d="  M 21,20  L 22,20  L 22,19  L 21,19  Z  " style="fill:rgb(0, 0, 0); fill-opacity:0.035; stroke:none;" />
 <path d="  M 32,19  L 31,19  L 31,20  L 32,20  Z  " style="fill:rgb(0, 0, 0); fill-opacity:0.035; stroke:none;" />
 <path d="  M 55,4  L 54,4  L 54,5  L 55,5  Z  " style="fill:rgb(0, 0, 0); fill-opacity:0.035; stroke:none;" />
 <path d="  M 12,22  L 11,22  L 11,23  L 12,23  Z  " style="fill:rgb(0, 0, 0); fill-opacity:0.443; stroke:none;" />
 <path d="  M 22,22  L 21,22  L 21,23  L 22,23  Z  " style="fill:rgb(0, 0, 0); fill-opacity:0.443; stroke:none;" />
 <path d="  M 31,23  L 32,23  L 32,22  L 31,22  Z  " style="fill:rgb(0, 0, 0); fill-opacity:0.443; stroke:none;" />
 <path d="  M 42,23  L 42,22  L 41,22  L 41,23  Z  " style="fill:rgb(0, 0, 0); fill-opacity:0.443; stroke:none;" />
 <path d="  M 44,11  L 43,11  L 43,12  L 44,12  Z  " style="fill:rgb(0, 0, 0); fill-opacity:0.443; stroke:none;" />
 <path d="  M 46,12  L 46,13  L 47,13  L 47,12  Z  " style="fill:rgb(0, 0, 0); fill-opacity:0.443; stroke:none;" />
 <path d="  M 13,15  L 13,14  L 12,14  L 12,15  Z  " style="fill:rgb(0, 0, 0); fill-opacity:0.031; stroke:none;" />
 <path d="  M 13,10  L 14,10  L 14,9  L 13,9  Z  " style="fill:rgb(0, 0, 0); fill-opacity:0.031; stroke:none;" />
 <path d="  M 23,15  L 23,14  L 22,14  L 22,15  Z  " style="fill:rgb(0, 0, 0); fill-opacity:0.031; stroke:none;" />
 <path d="  M 23,9  L 23,10  L 24,10  L 24,9  Z  " style="fill:rgb(0, 0, 0); fill-opacity:0.031; stroke:none;" />
 <path d="  M 33,14  L 32,14  L 32,15  L 33,15  Z  " style="fill:rgb(0, 0, 0); fill-opacity:0.031; stroke:none;" />
 <path d="  M 34,9  L 33,9  L 33,10  L 34,10  Z  " style="fill:rgb(0, 0, 0); fill-opacity:0.031; stroke:none;" />
 <path d="  M 12,16  L 13,16  L 13,15  L 12,15  Z  " style="fill:rgb(0, 0, 0); fill-opacity:0.220; stroke:none;" />
 <path d="  M 23,15  L 22,15  L 22,16  L 23,16  Z  " style="fill:rgb(0, 0, 0); fill-opacity:0.220; stroke:none;" />
 <path d="  M 33,15  L 32,15  L 32,16  L 33,16  Z  " style="fill:rgb(0, 0, 0); fill-opacity:0.220; stroke:none;" />
 <path d="  M 54,5  L 54,6  L 55,6  L 55,5  Z  " style="fill:rgb(0, 0, 0); fill-opacity:0.220; stroke:none;" />
 <path d="  M 13,17  L 12,17  L 12,18  L 13,18  Z  " style="fill:rgb(0, 0, 0); fill-opacity:0.620; stroke:none;" />
 <path d="  M 22,17  L 22,18  L 23,18  L 23,17  Z  " style="fill:rgb(0, 0, 0); fill-opacity:0.620; stroke:none;" />
 <path d="  M 32,17  L 32,18  L 33,18  L 33,17  Z  " style="fill:rgb(0, 0, 0); fill-opacity:0.620; stroke:none;" />
 <path d="  M 55,8  L 55,7  L 54,7  L 54,8  Z  " style="fill:rgb(0, 0, 0); fill-opacity:0.620; stroke:none;" />
 <path d="  M 12,18  L 12,19  L 13,19  L 13,18  Z  " style="fill:rgb(0, 0, 0); fill-opacity:0.824; stroke:none;" />
 <path d="  M 22,19  L 23,19  L 23,18  L 22,18  Z  " style="fill:rgb(0, 0, 0); fill-opacity:0.824; stroke:none;" />
 <path d="  M 33,19  L 33,18  L 32,18  L 32,19  Z  " style="fill:rgb(0, 0, 0); fill-opacity:0.824; stroke:none;" />
 <path d="  M 53,18  L 52,18  L 52,19  L 53,19  Z  " style="fill:rgb(0, 0, 0); fill-opacity:0.824; stroke:none;" />
 <path d="  M 54,14  L 54,13  L 53,13  L 53,14  Z  " style="fill:rgb(0, 0, 0); fill-opacity:0.824; stroke:none;" />
 <path d="  M 54,8  L 54,9  L 55,9  L 55,8  Z  " style="fill:rgb(0, 0, 0); fill-opacity:0.824; stroke:none;" />
 <path d="  M 12,24  L 13,24  L 13,23  L 12,23  Z  " style="fill:rgb(0, 0, 0); fill-opacity:0.553; stroke:none;" />
 <path d="  M 22,24  L 23,24  L 23,23  L 22,23  Z  " style="fill:rgb(0, 0, 0); fill-opacity:0.553; stroke:none;" />
 <path d="  M 33,23  L 32,23  L 32,24  L 33,24  Z  " style="fill:rgb(0, 0, 0); fill-opacity:0.553; stroke:none;" />
 <path d="  M 42,24  L 43,24  L 43,23  L 42,23  Z  " style="fill:rgb(0, 0, 0); fill-opacity:0.553; stroke:none;" />
 <path d="  M 13,10  L 13,11  L 14,11  L 14,10  Z  " style="fill:rgb(0, 0, 0); fill-opacity:0.216; stroke:none;" />
 <path d="  M 24,11  L 24,10  L 23,10  L 23,11  Z  " style="fill:rgb(0, 0, 0); fill-opacity:0.216; stroke:none;" />
 <path d="  M 34,11  L 34,10  L 33,10  L 33,11  Z  " style="fill:rgb(0, 0, 0); fill-opacity:0.216; stroke:none;" />
 <path d="  M 13,12  L 14,12  L 14,11  L 13,11  Z  " style="fill:rgb(0, 0, 0); fill-opacity:0.416; stroke:none;" />
 <path d="  M 23,11  L 23,12  L 24,12  L 24,11  Z  " style="fill:rgb(0, 0, 0); fill-opacity:0.416; stroke:none;" />
 <path d="  M 33,11  L 33,12  L 34,12  L 34,11  Z  " style="fill:rgb(0, 0, 0); fill-opacity:0.416; stroke:none;" />
 <path d="  M 47,28  L 47,29  L 48,29  L 48,28  Z  " style="fill:rgb(0, 0, 0); fill-opacity:0.416; stroke:none;" />
 <path d="  M 13,12  L 13,13  L 14,13  L 14,12  Z  " style="fill:rgb(0, 0, 0); fill-opacity:0.616; stroke:none;" />
 <path d="  M 23,13  L 24,13  L 24,12  L 23,12  Z  " style="fill:rgb(0, 0, 0); fill-opacity:0.616; stroke:none;" />
 <path d="  M 33,12  L 33,13  L 34,13  L 34,12  Z  " style="fill:rgb(0, 0, 0); fill-opacity:0.616; stroke:none;" />
 <path d="  M 14,14  L 14,13  L 13,13  L 13,14  Z  " style="fill:rgb(0, 0, 0); fill-opacity:0.820; stroke:none;" />
 <path d="  M 24,13  L 23,13  L 23,14  L 24,14  Z  " style="fill:rgb(0, 0, 0); fill-opacity:0.820; stroke:none;" />
 <path d="  M 33,14  L 34,14  L 34,13  L 33,13  Z  " style="fill:rgb(0, 0, 0); fill-opacity:0.820; stroke:none;" />
 <path d="  M 13,15  L 14,15  L 14,14  L 13,14  Z  " style="fill:rgb(0, 0, 0); fill-opacity:0.980; stroke:none;" />
 <path d="  M 14,10  L 15,10  L 15,9  L 14,9  Z  " style="fill:rgb(0, 0, 0); fill-opacity:0.980; stroke:none;" />
 <path d="  M 23,14  L 23,15  L 24,15  L 24,14  Z  " style="fill:rgb(0, 0, 0); fill-opacity:0.980; stroke:none;" />
 <path d="  M 25,10  L 25,9  L 24,9  L 24,10  Z  " style="fill:rgb(0, 0, 0); fill-opacity:0.980; stroke:none;" />
 <path d="  M 33,14  L 33,15  L 34,15  L 34,14  Z  " style="fill:rgb(0, 0, 0); fill-opacity:0.980; stroke:none;" />
 <path d="  M 35,9  L 34,9  L 34,10  L 35,10  Z  " style="fill:rgb(0, 0, 0); fill-opacity:0.980; stroke:none;" />
 <path d="  M 14,23  L 13,23  L 13,24  L 14,24  Z  " style="fill:rgb(0, 0, 0); fill-opacity:0.561; stroke:none;" />
 <path d="  M 23,23  L 23,24  L 24,24  L 24,23  Z  " style="fill:rgb(0, 0, 0); fill-opacity:0.561; stroke:none;" />
 <path d="  M 34,23  L 33,23  L 33,24  L 34,24  Z  " style="fill:rgb(0, 0, 0); fill-opacity:0.561; stroke:none;" />
 <path d="  M 14,6  L 15,6  L 15,5  L 14,5  Z  " style="fill:rgb(0, 0, 0); fill-opacity:0.004; stroke:none;" />
 <path d="  M 17,6  L 18,6  L 18,5  L 17,5  Z  " style="fill:rgb(0, 0, 0); fill-opacity:0.004; stroke:none;" />
 <path d="  M 25,6  L 25,5  L 24,5  L 24,6  Z  " style="fill:rgb(0, 0, 0); fill-opacity:0.004; stroke:none;" />
 <path d="  M 28,5  L 27,5  L 27,6  L 28,6  Z  " style="fill:rgb(0, 0, 0); fill-opacity:0.004; stroke:none;" />
 <path d="  M 34,6  L 35,6  L 35,5  L 34,5  Z  " style="fill:rgb(0, 0, 0); fill-opacity:0.004; stroke:none;" />
 <path d="  M 37,5  L 37,6  L 38,6  L 38,5  Z  " style="fill:rgb(0, 0, 0); fill-opacity:0.004; stroke:none;" />
 <path d="  M 15,6  L 14,6  L 14,7  L 15,7  Z  " style="fill:rgb(0, 0, 0); fill-opacity:0.357; stroke:none;" />
 <path d="  M 25,6  L 24,6  L 24,7  L 25,7  Z  " style="fill:rgb(0, 0, 0); fill-opacity:0.357; stroke:none;" />
 <path d="  M 35,6  L 34,6  L 34,7  L 35,7  Z  " style="fill:rgb(0, 0, 0); fill-opacity:0.357; stroke:none;" />
 <path d="  M 15,8  L 15,7  L 14,7  L 14,8  Z  " style="fill:rgb(0, 0, 0); fill-opacity:0.612; stroke:none;" />
 <path d="  M 25,8  L 25,7  L 24,7  L 24,8  Z  " style="fill:rgb(0, 0, 0); fill-opacity:0.612; stroke:none;" />
 <path d="  M 35,7  L 34,7  L 34,8  L 35,8  Z  " style="fill:rgb(0, 0, 0); fill-opacity:0.612; stroke:none;" />
 <path d="  M 14,9  L 15,9  L 15,8  L 14,8  Z  " style="fill:rgb(0, 0, 0); fill-opacity:0.816; stroke:none;" />
 <path d="  M 25,8  L 24,8  L 24,9  L 25,9  Z  " style="fill:rgb(0, 0, 0); fill-opacity:0.816; stroke:none;" />
 <path d="  M 35,8  L 34,8  L 34,9  L 35,9  Z  " style="fill:rgb(0, 0, 0); fill-opacity:0.816; stroke:none;" />
 <path d="  M 62,2  L 62,1  L 61,1  L 61,2  Z  " style="fill:rgb(0, 0, 0); fill-opacity:0.816; stroke:none;" />
 <path d="  M 15,23  L 15,22  L 14,22  L 14,23  Z  " style="fill:rgb(0, 0, 0); fill-opacity:0.431; stroke:none;" />
 <path d="  M 25,23  L 25,22  L 24,22  L 24,23  Z  " style="fill:rgb(0, 0, 0); fill-opacity:0.431; stroke:none;" />
 <path d="  M 34,23  L 35,23  L 35,22  L 34,22  Z  " style="fill:rgb(0, 0, 0); fill-opacity:0.431; stroke:none;" />
 <path d="  M 56,18  L 56,17  L 55,17  L 55,18  Z  " style="fill:rgb(0, 0, 0); fill-opacity:0.431; stroke:none;" />
 <path d="  M 17,11  L 16,11  L 16,12  L 17,12  Z  " style="fill:rgb(0, 0, 0); fill-opacity:0.655; stroke:none;" />
 <path d="  M 26,12  L 27,12  L 27,11  L 26,11  Z  " style="fill:rgb(0, 0, 0); fill-opacity:0.655; stroke:none;" />
 <path d="  M 37,12  L 37,11  L 36,11  L 36,12  Z  " style="fill:rgb(0, 0, 0); fill-opacity:0.655; stroke:none;" />
 <path d="  M 54,25  L 54,24  L 53,24  L 53,25  Z  " style="fill:rgb(0, 0, 0); fill-opacity:0.655; stroke:none;" />
 <path d="  M 16,12  L 16,13  L 17,13  L 17,12  Z  " style="fill:rgb(0, 0, 0); fill-opacity:0.455; stroke:none;" />
 <path d="  M 27,12  L 26,12  L 26,13  L 27,13  Z  " style="fill:rgb(0, 0, 0); fill-opacity:0.455; stroke:none;" />
 <path d="  M 37,13  L 37,12  L 36,12  L 36,13  Z  " style="fill:rgb(0, 0, 0); fill-opacity:0.455; stroke:none;" />
 <path d="  M 16,15  L 17,15  L 17,14  L 16,14  Z  " style="fill:rgb(0, 0, 0); fill-opacity:0.063; stroke:none;" />
 <path d="  M 18,10  L 18,9  L 17,9  L 17,10  Z  " style="fill:rgb(0, 0, 0); fill-opacity:0.063; stroke:none;" />
 <path d="  M 27,15  L 27,14  L 26,14  L 26,15  Z  " style="fill:rgb(0, 0, 0); fill-opacity:0.063; stroke:none;" />
 <path d="  M 28,9  L 27,9  L 27,10  L 28,10  Z  " style="fill:rgb(0, 0, 0); fill-opacity:0.063; stroke:none;" />
 <path d="  M 36,15  L 37,15  L 37,14  L 36,14  Z  " style="fill:rgb(0, 0, 0); fill-opacity:0.063; stroke:none;" />
 <path d="  M 37,10  L 38,10  L 38,9  L 37,9  Z  " style="fill:rgb(0, 0, 0); fill-opacity:0.063; stroke:none;" />
 <path d="  M 17,6  L 17,7  L 18,7  L 18,6  Z  " style="fill:rgb(0, 0, 0); fill-opacity:0.376; stroke:none;" />
 <path d="  M 27,7  L 28,7  L 28,6  L 27,6  Z  " style="fill:rgb(0, 0, 0); fill-opacity:0.376; stroke:none;" />
 <path d="  M 38,6  L 37,6  L 37,7  L 38,7  Z  " style="fill:rgb(0, 0, 0); fill-opacity:0.376; stroke:none;" />
 <path d="  M 17,8  L 17,9  L 18,9  L 18,8  Z  " style="fill:rgb(0, 0, 0); fill-opacity:0.255; stroke:none;" />
 <path d="  M 28,9  L 28,8  L 27,8  L 27,9  Z  " style="fill:rgb(0, 0, 0); fill-opacity:0.255; stroke:none;" />
 <path d="  M 37,8  L 37,9  L 38,9  L 38,8  Z  " style="fill:rgb(0, 0, 0); fill-opacity:0.255; stroke:none;" />
 <path d="  M 19,62  L 18,62  L 18,63  L 19,63  Z  " style="fill:rgb(0, 0, 0); fill-opacity:0.867; stroke:none;" />
 <path d="  M 26,35  L 26,36  L 27,36  L 27,35  Z  " style="fill:rgb(0, 0, 0); fill-opacity:0.867; stroke:none;" />
 <path d="  M 18,64  L 19,64  L 19,63  L 18,63  Z  " style="fill:rgb(0, 0, 0); fill-opacity:0.145; stroke:none;" />
 <path d="  M 57,56  L 57,55  L 56,55  L 56,56  Z  " style="fill:rgb(0, 0, 0); fill-opacity:0.145; stroke:none;" />
 <path d="  M 20,34  L 19,34  L 19,35  L 20,35  Z  " style="fill:rgb(0, 0, 0); fill-opacity:0.459; stroke:none;" />
 <path d="  M 28,34  L 27,34  L 27,35  L 28,35  Z  " style="fill:rgb(0, 0, 0); fill-opacity:0.459; stroke:none;" />
 <path d="  M 21,34  L 20,34  L 20,35  L 21,35  Z  " style="fill:rgb(0, 0, 0); fill-opacity:0.149; stroke:none;" />
 <path d="  M 27,34  L 26,34  L 26,35  L 27,35  Z  " style="fill:rgb(0, 0, 0); fill-opacity:0.149; stroke:none;" />
 <path d="  M 21,36  L 21,35  L 20,35  L 20,36  Z  " style="fill:rgb(0, 0, 0); fill-opacity:0.863; stroke:none;" />
 <path d="  M 56,55  L 55,55  L 55,56  L 56,56  Z  " style="fill:rgb(0, 0, 0); fill-opacity:0.863; stroke:none;" />
 <path d="  M 41,20  L 41,21  L 42,21  L 42,20  Z  " style="fill:rgb(0, 0, 0); fill-opacity:0.227; stroke:none;" />
 <path d="  M 42,17  L 42,18  L 43,18  L 43,17  Z  " style="fill:rgb(0, 0, 0); fill-opacity:0.631; stroke:none;" />
 <path d="  M 54,22  L 55,22  L 55,21  L 54,21  Z  " style="fill:rgb(0, 0, 0); fill-opacity:0.631; stroke:none;" />
 <path d="  M 56,17  L 56,16  L 55,16  L 55,17  Z  " style="fill:rgb(0, 0, 0); fill-opacity:0.631; stroke:none;" />
 <path d="  M 43,18  L 42,18  L 42,19  L 43,19  Z  " style="fill:rgb(0, 0, 0); fill-opacity:0.831; stroke:none;" />
 <path d="  M 43,3  L 43,4  L 44,4  L 44,3  Z  " style="fill:rgb(0, 0, 0); fill-opacity:0.541; stroke:none;" />
 <path d="  M 43,10  L 43,11  L 44,11  L 44,10  Z  " style="fill:rgb(0, 0, 0); fill-opacity:0.243; stroke:none;" />
 <path d="  M 47,14  L 47,13  L 46,13  L 46,14  Z  " style="fill:rgb(0, 0, 0); fill-opacity:0.243; stroke:none;" />
 <path d="  M 57,9  L 58,9  L 58,8  L 57,8  Z  " style="fill:rgb(0, 0, 0); fill-opacity:0.243; stroke:none;" />
 <path d="  M 44,13  L 44,12  L 43,12  L 43,13  Z  " style="fill:rgb(0, 0, 0); fill-opacity:0.639; stroke:none;" />
 <path d="  M 45,22  L 45,21  L 44,21  L 44,22  Z  " style="fill:rgb(0, 0, 0); fill-opacity:0.639; stroke:none;" />
 <path d="  M 45,16  L 45,17  L 46,17  L 46,16  Z  " style="fill:rgb(0, 0, 0); fill-opacity:0.639; stroke:none;" />
 <path d="  M 57,12  L 57,11  L 56,11  L 56,12  Z  " style="fill:rgb(0, 0, 0); fill-opacity:0.639; stroke:none;" />
 <path d="  M 44,0  L 44,1  L 45,1  L 45,0  Z  " style="fill:rgb(0, 0, 0); fill-opacity:0.494; stroke:none;" />
 <path d="  M 45,5  L 45,4  L 44,4  L 44,5  Z  " style="fill:rgb(0, 0, 0); fill-opacity:0.204; stroke:none;" />
 <path d="  M 45,8  L 45,7  L 44,7  L 44,8  Z  " style="fill:rgb(0, 0, 0); fill-opacity:0.643; stroke:none;" />
 <path d="  M 47,12  L 47,11  L 46,11  L 46,12  Z  " style="fill:rgb(0, 0, 0); fill-opacity:0.643; stroke:none;" />
 <path d="  M 45,22  L 44,22  L 44,23  L 45,23  Z  " style="fill:rgb(0, 0, 0); fill-opacity:0.408; stroke:none;" />
 <path d="  M 45,24  L 45,23  L 44,23  L 44,24  Z  " style="fill:rgb(0, 0, 0); fill-opacity:0.027; stroke:none;" />
 <path d="  M 46,0  L 45,0  L 45,1  L 46,1  Z  " style="fill:rgb(0, 0, 0); fill-opacity:0.169; stroke:none;" />
 <path d="  M 52,26  L 52,27  L 53,27  L 53,26  Z  " style="fill:rgb(0, 0, 0); fill-opacity:0.169; stroke:none;" />
 <path d="  M 46,18  L 46,17  L 45,17  L 45,18  Z  " style="fill:rgb(0, 0, 0); fill-opacity:0.439; stroke:none;" />
 <path d="  M 56,12  L 56,13  L 57,13  L 57,12  Z  " style="fill:rgb(0, 0, 0); fill-opacity:0.439; stroke:none;" />
 <path d="  M 45,19  L 45,20  L 46,20  L 46,19  Z  " style="fill:rgb(0, 0, 0); fill-opacity:0.051; stroke:none;" />
 <path d="  M 47,14  L 46,14  L 46,15  L 47,15  Z  " style="fill:rgb(0, 0, 0); fill-opacity:0.051; stroke:none;" />
 <path d="  M 50,29  L 50,28  L 49,28  L 49,29  Z  " style="fill:rgb(0, 0, 0); fill-opacity:0.051; stroke:none;" />
 <path d="  M 57,15  L 57,14  L 56,14  L 56,15  Z  " style="fill:rgb(0, 0, 0); fill-opacity:0.051; stroke:none;" />
 <path d="  M 57,10  L 58,10  L 58,9  L 57,9  Z  " style="fill:rgb(0, 0, 0); fill-opacity:0.051; stroke:none;" />
 <path d="  M 46,1  L 46,2  L 47,2  L 47,1  Z  " style="fill:rgb(0, 0, 0); fill-opacity:0.478; stroke:none;" />
 <path d="  M 46,10  L 46,11  L 47,11  L 47,10  Z  " style="fill:rgb(0, 0, 0); fill-opacity:0.843; stroke:none;" />
 <path d="  M 47,3  L 48,3  L 48,2  L 47,2  Z  " style="fill:rgb(0, 0, 0); fill-opacity:0.306; stroke:none;" />
 <path d="  M 48,3  L 47,3  L 47,4  L 48,4  Z  " style="fill:rgb(0, 0, 0); fill-opacity:0.745; stroke:none;" />
 <path d="  M 47,9  L 47,10  L 48,10  L 48,9  Z  " style="fill:rgb(0, 0, 0); fill-opacity:0.055; stroke:none;" />
 <path d="  M 48,25  L 47,25  L 47,26  L 48,26  Z  " style="fill:rgb(0, 0, 0); fill-opacity:0.573; stroke:none;" />
 <path d="  M 61,5  L 61,4  L 60,4  L 60,5  Z  " style="fill:rgb(0, 0, 0); fill-opacity:0.573; stroke:none;" />
 <path d="  M 49,25  L 50,25  L 50,24  L 49,24  Z  " style="fill:rgb(0, 0, 0); fill-opacity:0.271; stroke:none;" />
 <path d="  M 49,27  L 49,28  L 50,28  L 50,27  Z  " style="fill:rgb(0, 0, 0); fill-opacity:0.969; stroke:none;" />
 <path d="  M 60,3  L 60,4  L 61,4  L 61,3  Z  " style="fill:rgb(0, 0, 0); fill-opacity:0.969; stroke:none;" />
 <path d="  M 51,25  L 51,24  L 50,24  L 50,25  Z  " style="fill:rgb(0, 0, 0); fill-opacity:0.925; stroke:none;" />
 <path d="  M 51,28  L 51,27  L 50,27  L 50,28  Z  " style="fill:rgb(0, 0, 0); fill-opacity:0.588; stroke:none;" />
 <path d="  M 52,22  L 51,22  L 51,23  L 52,23  Z  " style="fill:rgb(0, 0, 0); fill-opacity:0.737; stroke:none;" />
 <path d="  M 52,27  L 52,26  L 51,26  L 51,27  Z  " style="fill:rgb(0, 0, 0); fill-opacity:0.894; stroke:none;" />
 <path d="  M 51,27  L 51,28  L 52,28  L 52,27  Z  " style="fill:rgb(0, 0, 0); fill-opacity:0.071; stroke:none;" />
 <path d="  M 52,16  L 52,17  L 53,17  L 53,16  Z  " style="fill:rgb(0, 0, 0); fill-opacity:0.424; stroke:none;" />
 <path d="  M 53,12  L 54,12  L 54,11  L 53,11  Z  " style="fill:rgb(0, 0, 0); fill-opacity:0.424; stroke:none;" />
 <path d="  M 53,18  L 53,17  L 52,17  L 52,18  Z  " style="fill:rgb(0, 0, 0); fill-opacity:0.624; stroke:none;" />
 <path d="  M 53,12  L 53,13  L 54,13  L 54,12  Z  " style="fill:rgb(0, 0, 0); fill-opacity:0.624; stroke:none;" />
 <path d="  M 54,25  L 53,25  L 53,26  L 54,26  Z  " style="fill:rgb(0, 0, 0); fill-opacity:0.090; stroke:none;" />
 <path d="  M 54,22  L 54,23  L 55,23  L 55,22  Z  " style="fill:rgb(0, 0, 0); fill-opacity:0.412; stroke:none;" />
 <path d="  M 54,24  L 55,24  L 55,23  L 54,23  Z  " style="fill:rgb(0, 0, 0); fill-opacity:0.118; stroke:none;" />
 <path d="  M 63,2  L 63,1  L 62,1  L 62,2  Z  " style="fill:rgb(0, 0, 0); fill-opacity:0.118; stroke:none;" />
 <path d="  M 56,2  L 55,2  L 55,3  L 56,3  Z  " style="fill:rgb(0, 0, 0); fill-opacity:0.286; stroke:none;" />
 <path d="  M 56,3  L 55,3  L 55,4  L 56,4  Z  " style="fill:rgb(0, 0, 0); fill-opacity:0.741; stroke:none;" />
 <path d="  M 58,1  L 58,0  L 57,0  L 57,1  Z  " style="fill:rgb(0, 0, 0); fill-opacity:0.102; stroke:none;" />
 <path d="  M 57,1  L 57,2  L 58,2  L 58,1  Z  " style="fill:rgb(0, 0, 0); fill-opacity:0.957; stroke:none;" />
 <path d="  M 60,1  L 60,0  L 59,0  L 59,1  Z  " style="fill:rgb(0, 0, 0); fill-opacity:0.463; stroke:none;" />
 <path d="  M 60,4  L 60,3  L 59,3  L 59,4  Z  " style="fill:rgb(0, 0, 0); fill-opacity:0.584; stroke:none;" />
 <path d="  M 61,0  L 60,0  L 60,1  L 61,1  Z  " style="fill:rgb(0, 0, 0); fill-opacity:0.290; stroke:none;" />
 <path d="  M 63,3  L 63,4  L 64,4  L 64,3  Z  " style="fill:rgb(0, 0, 0); fill-opacity:0.290; stroke:none;" />
 <path d="  M 61,1  L 62,1  L 62,0  L 61,0  Z  " style="fill:rgb(0, 0, 0); fill-opacity:0.012; stroke:none;" />
 <path d="  M 64,2  L 63,2  L 63,3  L 64,3  Z  " style="fill:rgb(0, 0, 0); fill-opacity:0.012; stroke:none;" />
 <path d="  M 63,2  L 62,2  L 62,3  L 63,3  Z  " style="fill:rgb(0, 0, 0); fill-opacity:0.812; stroke:none;" />
 <path d="  M 64,5  L 64,4  L 63,4  L 63,5  Z  " style="fill:rgb(0, 0, 0); fill-opacity:0.471; stroke:none;" />
</svg>
